<svg width="55" height="50" viewBox="0 0 55 50" fill="none" xmlns="http://www.w3.org/2000/svg">
<path d="M4.25105 42.6783C4.25105 38.9246 4.4349 35.258 3.32791 31.6208C1.48647 25.5703 1 19.7939 1 13.459C1 7.25135 6.30211 24.5154 6.68934 30.711C6.92426 34.4698 5.69596 23.948 5.69596 20.1819C5.69596 17.767 5.69596 15.3521 5.69596 12.9373C5.69596 11.8155 5.3716 10.1342 5.89664 9.08416C6.88232 7.11281 7.21922 8.02618 7.5021 10.1478C7.90219 13.1485 9.11527 16.0365 9.58919 19.038C10.0378 21.8794 10.0307 24.7961 10.0307 27.6673C10.0307 30.3371 9.91444 29.133 10.111 27.266C10.6821 21.8399 11.1006 16.3113 11.9974 10.9304C12.3241 8.97027 12.4843 5.9441 12.8302 3.9841C13.0168 2.92665 13.0294 1.99901 13.7333 1.09405C14.4371 0.189309 14.7172 6.09204 14.7467 6.75625C15.072 14.0748 15.0879 36.0567 15.0879 28.7309C15.0879 26.6232 15.448 24.4827 15.8103 22.4095C16.5576 18.1333 16.7299 13.2344 18.3389 9.16444C19.7894 5.49561 20.3821 14.651 20.5063 15.4659C21.1034 19.384 21.2288 23.2715 21.2288 27.2258C21.2288 28.3052 21.3035 33.7355 21.4294 33.6276C23.2359 32.0792 24.6832 30.5529 26.9482 29.5337C30.4958 27.9372 26.3261 36.1424 25.2223 37.0392C24.0578 37.9854 20.7018 40.2944 20.5063 41.9559C20.3913 42.9334 19.544 44.6127 19.1417 45.5682C18.8067 46.3637 18.6126 47.2757 18.3389 48.0968" stroke="#181A1D" stroke-width="1.87342" stroke-linecap="round"/>
<path d="M50.206 7.3219C50.206 11.0757 50.0221 14.7422 51.1291 18.3795C52.9706 24.4299 53.457 30.2063 53.457 36.5412C53.457 42.7489 48.1549 25.4848 47.7677 19.2893C47.5328 15.5305 48.7611 26.0522 48.7611 29.8184C48.7611 32.2332 48.7611 34.6481 48.7611 37.063C48.7611 38.1848 49.0854 39.866 48.5604 40.9161C47.5747 42.8874 47.2378 41.9741 46.9549 39.8525C46.5548 36.8518 45.3418 33.9637 44.8678 30.9622C44.4192 28.1208 44.4263 25.2041 44.4263 22.3329C44.4263 19.6632 44.5426 20.8672 44.3461 22.7343C43.7749 28.1603 43.3565 33.6889 42.4597 39.0698C42.133 41.03 41.9727 44.0561 41.6268 46.0161C41.4402 47.0736 41.4276 48.0012 40.7238 48.9062C40.0199 49.8109 39.7398 43.9082 39.7103 43.244C39.385 35.9254 39.3691 13.9435 39.3691 21.2693C39.3691 23.3771 39.009 25.5175 38.6467 27.5908C37.8994 31.867 37.7271 36.7659 36.1181 40.8358C34.6676 44.5046 34.0749 35.3493 33.9507 34.5344C33.3537 30.6162 33.2283 26.7288 33.2283 22.7744C33.2283 21.695 33.1535 16.2647 33.0276 16.3727C31.2211 17.9211 29.7738 19.4473 27.5088 20.4666C23.9612 22.063 28.131 13.8578 29.2347 12.9611C30.3992 12.0149 33.7553 9.70581 33.9507 8.04435C34.0657 7.06689 34.9131 5.38753 35.3154 4.43207C35.6503 3.63657 35.8444 2.72451 36.1181 1.90347" stroke="#181A1D" stroke-width="1.87342" stroke-linecap="round"/>
</svg>
