<svg width="208" height="132" viewBox="0 0 208 132" fill="none" xmlns="http://www.w3.org/2000/svg">
<rect width="208" height="132" rx="8" fill="white" fill-opacity="0.5"/>
<rect x="0.5" y="0.5" width="207" height="131" rx="7.5" stroke="#181A1D" stroke-opacity="0.1" stroke-dasharray="3 3"/>
<mask id="path-3-inside-1_601_2658" fill="white">
<path d="M0 8C0 3.58172 3.58172 0 8 0L200 0C204.418 0 208 3.58172 208 8V124C208 128.418 204.418 132 200 132H8.00001C3.58173 132 0 128.418 0 124L0 8Z"/>
</mask>
<path d="M0 8C0 3.58172 3.58172 0 8 0L200 0C204.418 0 208 3.58172 208 8V124C208 128.418 204.418 132 200 132H8.00001C3.58173 132 0 128.418 0 124L0 8Z" fill="#181A1D"/>
<path d="M8 1L200 1V-1L8 -1V1ZM207 8V124H209V8H207ZM200 131H8.00001V133H200V131ZM1 124L1 8H-1L-1 124H1ZM8.00001 131C4.13401 131 1 127.866 1 124H-1C-1 128.971 3.02944 133 8.00001 133V131ZM207 124C207 127.866 203.866 131 200 131V133C204.971 133 209 128.971 209 124H207ZM200 1C203.866 1 207 4.13401 207 8H209C209 3.02944 204.971 -1 200 -1V1ZM8 -1C3.02944 -1 -1 3.02944 -1 8H1C1 4.13401 4.13401 1 8 1V-1Z" fill="#181A1D" fill-opacity="0.1" mask="url(#path-3-inside-1_601_2658)"/>
<rect x="54" y="16" width="100" height="15" rx="4" fill="white" fill-opacity="0.1"/>
<rect x="77" y="41" width="25" height="12" rx="4" fill="white" fill-opacity="0.1"/>
<rect x="106" y="41" width="25" height="12" rx="4" fill="white" fill-opacity="0.1"/>
<path d="M16 65C16 62.7909 17.7909 61 20 61H188C190.209 61 192 62.7909 192 65V132H16V65Z" fill="white" fill-opacity="0.1"/>
<g clip-path="url(#clip0_601_2658)">
<path d="M102.5 70.0605L98.75 66.3098L99.8098 65.25L102.5 67.9395L108.189 62.25L109.25 63.3112L102.5 70.0605Z" fill="#CBF36E"/>
<path d="M104 55.5C101.923 55.5 99.8932 56.1158 98.1665 57.2696C96.4398 58.4233 95.094 60.0632 94.2993 61.9818C93.5045 63.9004 93.2966 66.0116 93.7018 68.0484C94.1069 70.0852 95.1069 71.9562 96.5754 73.4246C98.0438 74.8931 99.9148 75.8931 101.952 76.2982C103.988 76.7034 106.1 76.4955 108.018 75.7007C109.937 74.906 111.577 73.5602 112.73 71.8335C113.884 70.1068 114.5 68.0767 114.5 66C114.5 63.2152 113.394 60.5445 111.425 58.5754C109.455 56.6062 106.785 55.5 104 55.5ZM104 75C102.22 75 100.48 74.4722 98.9999 73.4832C97.5198 72.4943 96.3663 71.0887 95.6851 69.4442C95.0039 67.7996 94.8257 65.99 95.1729 64.2442C95.5202 62.4984 96.3774 60.8947 97.636 59.636C98.8947 58.3774 100.498 57.5202 102.244 57.1729C103.99 56.8257 105.8 57.0039 107.444 57.6851C109.089 58.3663 110.494 59.5198 111.483 60.9999C112.472 62.4799 113 64.22 113 66C113 68.3869 112.052 70.6761 110.364 72.364C108.676 74.0518 106.387 75 104 75Z" fill="#CBF36E"/>
</g>
<defs>
<clipPath id="clip0_601_2658">
<rect width="22" height="22" fill="white" transform="translate(93 55)"/>
</clipPath>
</defs>
</svg>
