<svg width="46" height="69" viewBox="0 0 46 69" fill="none" xmlns="http://www.w3.org/2000/svg">
<path d="M12.6131 66.116C12.5358 66.6628 12.9165 67.1688 13.4633 67.2461L22.3747 68.5059C22.9216 68.5832 23.4275 68.2026 23.5048 67.6558C23.5822 67.1089 23.2015 66.6029 22.6547 66.5256L14.7334 65.4058L15.8533 57.4846C15.9306 56.9377 15.5499 56.4317 15.0031 56.3544C14.4563 56.2771 13.9503 56.6578 13.873 57.2046L12.6131 66.116ZM0.223731 2.72534C11.3627 2.11335 20.9517 3.36398 28.2514 6.14821C35.5546 8.9338 40.4698 13.2111 42.4881 18.605C44.502 23.987 43.7246 30.7309 39.1082 38.6605C34.4881 46.5965 26.0694 55.6266 13.0021 65.4568L14.2045 67.0551C27.3883 57.1372 36.0326 47.9186 40.8366 39.6668C45.6442 31.4087 46.652 24.026 44.3613 17.9041C42.075 11.7942 36.5959 7.19042 28.9641 4.27952C21.3288 1.36727 11.4421 0.10597 0.114013 0.728352L0.223731 2.72534Z" fill="#D2D1D0"/>
</svg>
