<svg width="60" height="84" viewBox="0 0 60 84" fill="none" xmlns="http://www.w3.org/2000/svg">
<path d="M59.0517 9.82698C59.5251 9.54247 59.6782 8.92809 59.3937 8.45473L54.7574 0.740791C54.4729 0.267426 53.8585 0.114325 53.3852 0.398831C52.9118 0.683336 52.7587 1.29771 53.0432 1.77108L57.1644 8.62791L50.3075 12.7491C49.8342 13.0336 49.6811 13.6479 49.9656 14.1213C50.2501 14.5947 50.8644 14.7478 51.3378 14.4633L59.0517 9.82698ZM44.2271 82.0958C13.2202 68.9202 -0.253272 46.3504 2.3073 29.6035C3.58164 21.2689 8.82512 14.2307 18.0859 10.313C27.3824 6.38025 40.784 5.57654 58.2948 9.9402L58.7784 7.99955C41.0128 3.57239 27.1352 4.31321 17.3067 8.47104C7.44255 12.6439 1.71535 20.2424 0.330276 29.3012C-2.428 47.3411 12.0246 70.5852 43.4449 83.9365L44.2271 82.0958Z" fill="#D2D1D0"/>
</svg>
