<svg width="28" height="29" viewBox="0 0 28 29" fill="none" xmlns="http://www.w3.org/2000/svg">
<path d="M13.8857 20.5634C10.4239 20.5634 7.61719 17.7486 7.61719 14.2949C7.61719 10.8411 10.432 8.02637 13.8857 8.02637C17.3395 8.02637 20.1543 10.8411 20.1543 14.2949C20.1543 17.7486 17.3476 20.5634 13.8857 20.5634ZM13.8857 11.3021C12.2357 11.3021 10.8849 12.6529 10.8849 14.303C10.8849 15.953 12.2357 17.3038 13.8857 17.3038C15.5358 17.3038 16.8865 15.953 16.8865 14.303C16.8865 12.6529 15.5439 11.3021 13.8857 11.3021Z" fill="#7348FB"/>
<path d="M22.7785 24.729L22.8836 24.632C22.8998 24.6239 22.916 24.5997 22.9322 24.5916C25.8845 21.9872 27.5911 18.2422 27.5911 14.3031C27.5911 14.2546 27.5911 14.2061 27.5911 14.1575C27.583 13.2436 27.486 12.3538 27.308 11.4884C26.7418 8.80296 25.383 6.3926 23.5065 4.54035C21.8079 2.86605 19.6725 1.6366 17.2784 1.02188C16.2592 0.763051 15.1915 0.617461 14.0915 0.601291C10.4355 0.544671 6.98987 1.9197 4.36922 4.45138C1.90225 6.84556 0.43824 10.0001 0.21985 13.4053C0.20368 13.7046 0.1875 13.9958 0.1875 14.3031C0.1875 14.3112 0.1875 14.3193 0.1875 14.3355C0.19559 17.9025 1.55445 21.2672 4.03759 23.8393C6.47221 26.3548 9.7076 27.827 13.1856 27.9969C13.4121 28.0049 13.6467 28.013 13.8812 28.013H25.6094L22.7785 24.729ZM13.8893 24.729C13.8327 24.729 13.7761 24.729 13.7195 24.729C13.6062 24.729 13.5011 24.721 13.3878 24.721C7.88769 24.4622 3.47949 19.9084 3.46332 14.3598C3.46332 14.287 3.46332 14.2061 3.46332 14.1414C3.46332 13.9634 3.4714 13.7855 3.47949 13.6075C3.84347 8.18824 8.373 3.88519 13.8893 3.88519C13.9459 3.88519 14.0025 3.88519 14.0592 3.88519C14.868 3.89328 15.6526 4.00652 16.4129 4.19255C18.249 4.65359 19.8909 5.59994 21.2013 6.886C22.6572 8.31765 23.7006 10.178 24.105 12.2487C24.2263 12.8634 24.2991 13.4943 24.3072 14.1333C24.3072 14.2465 24.3072 14.3598 24.3072 14.4811C24.2587 17.4172 22.9726 20.1996 20.7726 22.1408L20.627 22.2621L22.7623 24.7372L13.8893 24.729Z" fill="#7348FB"/>
</svg>
