<svg width="40" height="40" viewBox="0 0 40 40" fill="none" xmlns="http://www.w3.org/2000/svg">
<path d="M24.1402 15.8625H32.0713V7.93139H24.1375V0.00292969H17.8161C16.735 0.00292969 15.8594 0.878531 15.8594 1.95968V7.92872H24.1375V15.8625H24.1402Z" fill="#0071C0"/>
<path d="M32.0744 7.92846L24.1406 0V7.92846H32.0744Z" fill="#00A6DD"/>
<path d="M15.8596 15.8628V7.93164H7.92846V15.8654H0V22.1868C0 23.268 0.875599 24.1436 1.95675 24.1436H7.92579V15.8654H15.8596V15.8628Z" fill="#0071C0"/>
<path d="M7.92846 7.92871L0 15.8625H7.92846V7.92871Z" fill="#00A6DD"/>
<path d="M15.8608 24.1377H7.92969V32.0688H15.8635V39.9973H22.1849C23.266 39.9973 24.1416 39.1217 24.1416 38.0405V32.0715H15.8635V24.1377H15.8608Z" fill="#0071C0"/>
<path d="M7.92969 32.0713L15.8608 39.9997V32.0713H7.92969Z" fill="#00A6DD"/>
<path d="M24.1406 24.1373V32.0684H32.0718V24.1346H40.0002V17.8132C40.0002 16.732 39.1246 15.8564 38.0435 15.8564H32.0744V24.1346H24.1406V24.1373Z" fill="#0071C0"/>
<path d="M32.0781 32.0715L40.0066 24.1377H32.0781V32.0715Z" fill="#00A6DD"/>
</svg>
