<svg width="26" height="37" viewBox="0 0 26 37" fill="none" xmlns="http://www.w3.org/2000/svg">
<path d="M19.0679 0.000174883C18.976 0.00151106 18.8664 0.00449277 18.8242 0.00659725C18.7821 0.00893556 18.663 0.0174531 18.5595 0.0256706C18.456 0.0340217 18.268 0.0566042 18.1416 0.0759587C18.0153 0.0953333 17.8272 0.130136 17.7237 0.153262C17.6204 0.176378 17.4417 0.222221 17.3268 0.255235C17.2118 0.288238 17.033 0.346325 16.9294 0.38463C16.8256 0.422798 16.6783 0.480611 16.602 0.513067C16.5255 0.545536 16.3754 0.616009 16.2681 0.66964C16.1609 0.723268 16.0074 0.805026 15.9268 0.851271C15.8465 0.897656 15.7116 0.980539 15.6274 1.03542C15.5431 1.09017 15.3989 1.19144 15.307 1.26025C15.2151 1.32906 15.0803 1.43507 15.0075 1.4958C14.9348 1.55653 14.782 1.69708 14.668 1.80824C14.5542 1.9194 14.4032 2.07611 14.3328 2.15662C14.2621 2.237 14.1538 2.36668 14.0918 2.44483C14.0299 2.52284 13.9262 2.66394 13.8614 2.75824C13.7966 2.85255 13.6946 3.01122 13.6347 3.1108C13.575 3.2104 13.4714 3.40152 13.4045 3.53564C13.3376 3.66964 13.2422 3.88278 13.1925 4.00925C13.1426 4.13559 13.0756 4.32059 13.0434 4.42019C13.0113 4.51979 12.9611 4.6953 12.932 4.81022C12.9029 4.92514 12.8629 5.10998 12.843 5.22113C12.8232 5.33215 12.7976 5.49832 12.7862 5.59028C12.7746 5.68222 12.759 5.84825 12.7513 5.9594C12.7435 6.07041 12.7373 6.24926 12.7371 6.35667C12.737 6.46407 12.7435 6.65213 12.7516 6.77457C12.7597 6.89701 12.7752 7.06501 12.7859 7.14773L12.8055 7.29845L12.771 7.46811C12.7521 7.56158 12.7144 7.72205 12.6874 7.825C12.6604 7.92794 12.6104 8.09537 12.5764 8.19719C12.5424 8.29902 12.4735 8.47802 12.4232 8.59501C12.373 8.71202 12.2876 8.88934 12.2333 8.98895C12.1791 9.08868 12.0765 9.25792 12.0051 9.36522C11.9338 9.47247 11.8203 9.62918 11.7529 9.71346C11.6856 9.79774 11.5331 9.96419 11.4141 10.0833C11.2951 10.2024 11.1348 10.3502 11.0578 10.4115C10.9809 10.4728 10.8549 10.5681 10.7777 10.6233C10.7005 10.6783 10.5535 10.774 10.451 10.8358C10.3484 10.8975 10.158 11.0005 10.0277 11.0644C9.89745 11.1283 9.68751 11.2214 9.56104 11.2711C9.4347 11.3209 9.24038 11.3906 9.12922 11.426C9.0182 11.4614 8.80187 11.5213 8.64866 11.5592C8.49543 11.5971 8.28552 11.6436 8.182 11.6624C8.07864 11.6814 7.90619 11.7094 7.79892 11.7247C7.69166 11.7401 7.49736 11.7631 7.3671 11.7759C7.19173 11.7931 6.96398 11.7998 6.48953 11.802C5.97971 11.8043 5.81032 11.8098 5.6607 11.8289C5.55735 11.842 5.37863 11.8689 5.26373 11.8886C5.14881 11.9083 4.95547 11.9488 4.83414 11.9788C4.71282 12.0086 4.52476 12.0618 4.41625 12.0969C4.30774 12.1321 4.12429 12.198 4.00839 12.2434C3.8925 12.289 3.68562 12.3815 3.5487 12.449C3.41177 12.5166 3.22762 12.6145 3.13947 12.6667C3.05143 12.719 2.92286 12.7992 2.85391 12.8451C2.78496 12.8909 2.68467 12.9601 2.63104 12.9991C2.57741 13.038 2.45831 13.1302 2.36638 13.204C2.27444 13.2779 2.11773 13.4132 2.01813 13.5049C1.91853 13.5967 1.76364 13.753 1.67407 13.8522C1.58436 13.9515 1.46358 14.0912 1.40564 14.1625C1.34769 14.234 1.2481 14.3654 1.1843 14.4546C1.12037 14.5438 1.03052 14.6763 0.984416 14.7491C0.938448 14.8218 0.857928 14.9567 0.805691 15.0486C0.753456 15.1405 0.671831 15.2972 0.624193 15.3968C0.576691 15.4964 0.509129 15.6474 0.474164 15.7323C0.43934 15.8171 0.381819 15.9707 0.346441 16.0735C0.311196 16.1763 0.2577 16.3468 0.227749 16.4524C0.197785 16.5581 0.154348 16.7367 0.131363 16.8494C0.108247 16.9622 0.0770409 17.139 0.0618586 17.2425C0.046693 17.3458 0.02661 17.512 0.0171365 17.6116C0.00764963 17.7112 0 17.9587 0 18.1618C0 18.3648 0.00778107 18.6125 0.0174015 18.7121C0.0268884 18.8117 0.0470716 18.9777 0.0621236 19.0812C0.0773226 19.1845 0.104888 19.3444 0.123554 19.4364C0.142094 19.5283 0.176907 19.6788 0.200724 19.7707C0.224542 19.8627 0.272603 20.0256 0.307427 20.1329C0.342392 20.2401 0.39922 20.3999 0.433907 20.4881C0.468591 20.5762 0.533923 20.7298 0.579053 20.8294C0.624326 20.929 0.705807 21.092 0.760133 21.1915C0.814458 21.2911 0.899991 21.4384 0.950418 21.5189C1.00071 21.5993 1.0854 21.7278 1.13875 21.8045C1.19196 21.8811 1.27958 22.0002 1.33349 22.0691C1.38725 22.1381 1.48796 22.2602 1.55747 22.3407C1.62684 22.4211 1.76516 22.5686 1.86475 22.6682C1.96449 22.768 2.11815 22.9113 2.20618 22.9868C2.29436 23.0625 2.44786 23.1855 2.54744 23.2601C2.64703 23.3349 2.80068 23.443 2.8887 23.5003C2.97687 23.5577 3.12105 23.6453 3.20908 23.6953C3.29726 23.7452 3.43962 23.8212 3.52555 23.8643C3.61136 23.9072 3.76807 23.9795 3.8738 24.0246C3.97938 24.0697 4.16925 24.1423 4.29559 24.1859C4.42208 24.2295 4.64454 24.2954 4.79011 24.3323C4.93568 24.3692 5.14881 24.4154 5.26372 24.4352C5.37864 24.4549 5.56364 24.482 5.67467 24.4955C5.82999 24.5144 5.98601 24.5201 6.35024 24.5204C6.64331 24.5206 6.88751 24.514 6.991 24.5028C7.08293 24.4929 7.2739 24.4659 7.41557 24.4427C7.55709 24.4193 7.78276 24.3727 7.91704 24.339C8.05118 24.3053 8.24884 24.2489 8.35597 24.2136C8.46324 24.1784 8.64501 24.1115 8.75993 24.065C8.87499 24.0186 9.06932 23.9306 9.19192 23.8694C9.3145 23.8083 9.46495 23.7296 9.52623 23.6948C9.58752 23.6599 9.72542 23.5741 9.83268 23.5042C9.93994 23.4343 10.0884 23.3322 10.1628 23.2773C10.2371 23.2223 10.375 23.1131 10.4693 23.0345C10.5634 22.9558 10.741 22.791 10.8638 22.6684C10.9864 22.5457 11.152 22.3673 11.2315 22.2718C11.3112 22.1764 11.4277 22.029 11.4907 21.9445C11.5537 21.8598 11.652 21.7184 11.7094 21.6304C11.7668 21.5422 11.8565 21.395 11.9087 21.303C11.961 21.2111 12.049 21.0418 12.1043 20.9269C12.1596 20.812 12.2457 20.6145 12.2957 20.4881C12.3457 20.3616 12.4126 20.1736 12.4443 20.0702C12.4761 19.9667 12.5265 19.7819 12.5563 19.6593C12.5861 19.5367 12.626 19.3455 12.6449 19.2345C12.6639 19.1233 12.6891 18.9352 12.7011 18.8166C12.7129 18.6977 12.7291 18.4439 12.7369 18.2524C12.7447 18.0609 12.7639 17.7918 12.7795 17.6544C12.7951 17.5172 12.8235 17.3197 12.8424 17.2156C12.8615 17.1117 12.8959 16.9482 12.9189 16.8525C12.9419 16.7567 12.9862 16.5937 13.0173 16.4903C13.0483 16.3868 13.1084 16.2145 13.1507 16.1072C13.1932 16 13.2676 15.8307 13.3161 15.7311C13.3645 15.6315 13.4484 15.4757 13.5024 15.3849C13.5565 15.2939 13.6416 15.161 13.6916 15.0893C13.7416 15.0175 13.8379 14.8911 13.9056 14.8082C13.9733 14.7253 14.0811 14.6022 14.1449 14.5346C14.2088 14.4672 14.3335 14.3482 14.4219 14.2702C14.5104 14.1924 14.6468 14.0801 14.7249 14.0209C14.8032 13.9615 14.938 13.8672 15.0244 13.8114C15.1109 13.7554 15.2329 13.6802 15.2956 13.6445C15.3583 13.6087 15.4899 13.5393 15.5881 13.4904C15.6863 13.4415 15.8124 13.3815 15.8682 13.3571C15.9241 13.3329 16.04 13.2858 16.1259 13.2527C16.2117 13.2197 16.3796 13.1606 16.4988 13.1216C16.6181 13.0826 16.8155 13.0259 16.9376 12.9954C17.0598 12.9649 17.2537 12.9213 17.3686 12.8983C17.4835 12.8754 17.6656 12.8438 17.7734 12.8279C17.8811 12.8122 18.0534 12.7902 18.1565 12.779C18.2594 12.7679 18.4082 12.7545 18.4869 12.7493C18.5656 12.744 18.8351 12.7383 19.0859 12.7367C19.3366 12.7351 19.6075 12.7264 19.6879 12.7175C19.7684 12.7085 19.9205 12.6888 20.0259 12.6736C20.1315 12.6584 20.2945 12.6302 20.3881 12.6108C20.4819 12.5914 20.643 12.5536 20.7465 12.5267C20.85 12.4997 21.0373 12.4428 21.1629 12.4003C21.2884 12.3578 21.479 12.286 21.5865 12.2406C21.694 12.1951 21.8953 12.0997 22.0339 12.0284C22.1724 11.9572 22.3642 11.85 22.4599 11.7902C22.5557 11.7303 22.6967 11.6373 22.7733 11.5832C22.8499 11.5293 22.9722 11.4379 23.0449 11.3803C23.1178 11.3227 23.2432 11.2179 23.3235 11.1474C23.404 11.0769 23.5577 10.9292 23.6652 10.8192C23.7726 10.7091 23.9206 10.5469 23.994 10.4588C24.0674 10.3708 24.1744 10.2352 24.2318 10.1577C24.2891 10.0802 24.371 9.96414 24.4138 9.89992C24.4564 9.8357 24.5332 9.71424 24.5842 9.62997C24.6353 9.5457 24.7419 9.34511 24.8211 9.18422C24.9002 9.02333 24.9945 8.8165 25.0306 8.72454C25.0666 8.6326 25.1239 8.47298 25.1581 8.36975C25.1921 8.26653 25.2443 8.08782 25.274 7.97273C25.3036 7.85754 25.344 7.67967 25.3638 7.57743C25.3835 7.47519 25.4119 7.29661 25.4269 7.18045C25.4419 7.06442 25.4616 6.83331 25.4704 6.66703C25.4826 6.43705 25.4826 6.2937 25.4702 6.06862C25.4612 5.90578 25.4414 5.67525 25.4261 5.55616C25.4109 5.43706 25.3796 5.24568 25.3564 5.13076C25.3334 5.01584 25.2925 4.83824 25.2655 4.73615C25.2386 4.63405 25.1883 4.46507 25.1538 4.36088C25.1194 4.25668 25.0593 4.09259 25.0204 3.99634C24.9816 3.90009 24.9047 3.72722 24.8497 3.61202C24.7945 3.49696 24.6973 3.31198 24.6338 3.20108C24.5701 3.0902 24.4564 2.90856 24.381 2.79755C24.3055 2.6864 24.1855 2.5226 24.1145 2.43345C24.0434 2.34415 23.9209 2.199 23.842 2.11083C23.7633 2.02252 23.6224 1.87654 23.5289 1.78642C23.4353 1.69616 23.2834 1.55978 23.1914 1.48302C23.0994 1.40641 22.9677 1.30193 22.8987 1.25067C22.8297 1.19955 22.6918 1.10428 22.5922 1.03895C22.4926 0.973617 22.3485 0.884047 22.2719 0.840026C22.1952 0.795869 22.0323 0.710338 21.9097 0.650026C21.7871 0.589708 21.5772 0.497079 21.443 0.444287C21.309 0.391494 21.1153 0.322548 21.0126 0.291067C20.9099 0.2596 20.7532 0.215565 20.6644 0.193274C20.5755 0.170993 20.4192 0.136586 20.317 0.116807C20.2147 0.0970316 20.036 0.0686098 19.92 0.0537047C19.8038 0.0388063 19.6023 0.0201331 19.472 0.0123365C19.3418 0.00438634 19.1599 -0.00106108 19.0679 0.000174883ZM18.7197 24.0614C18.5205 24.0584 18.2854 24.0616 18.1973 24.0683C18.1093 24.0751 17.9556 24.0907 17.8561 24.1032C17.7565 24.1156 17.5904 24.1411 17.487 24.1598C17.3836 24.1784 17.2082 24.2162 17.0972 24.2436C16.9863 24.2711 16.7982 24.3248 16.6793 24.3633C16.5605 24.4016 16.3691 24.4707 16.2542 24.5168C16.1392 24.5628 15.9512 24.6463 15.8363 24.7025C15.7213 24.7586 15.549 24.8494 15.4532 24.9044C15.3575 24.9596 15.1788 25.0726 15.0562 25.1557C14.9336 25.2388 14.7603 25.365 14.6713 25.4361C14.5822 25.5072 14.4292 25.6374 14.3313 25.7256C14.2335 25.8136 14.0757 25.9699 13.9805 26.0729C13.8855 26.1758 13.7492 26.3325 13.6776 26.4211C13.6061 26.5097 13.4975 26.6525 13.4362 26.7383C13.3749 26.824 13.2699 26.9839 13.2027 27.0935C13.1356 27.203 13.0319 27.3867 12.9725 27.5017C12.913 27.6166 12.827 27.7984 12.7813 27.9056C12.7357 28.0129 12.6699 28.1792 12.6351 28.2752C12.6003 28.3711 12.5465 28.5372 12.5154 28.6443C12.4845 28.7513 12.4408 28.9204 12.4182 29.02C12.3958 29.1195 12.3646 29.2762 12.349 29.3682C12.3335 29.4603 12.3096 29.6295 12.2959 29.7443C12.2767 29.9063 12.2711 30.0597 12.2711 30.4268C12.2711 30.7889 12.2767 30.9481 12.2952 31.1024C12.3084 31.2134 12.332 31.3796 12.3474 31.4715C12.3629 31.5635 12.3938 31.7202 12.4161 31.8198C12.4384 31.9194 12.4856 32.1011 12.5211 32.2237C12.5567 32.3463 12.6173 32.5312 12.6558 32.6347C12.6946 32.738 12.7607 32.901 12.8029 32.9969C12.8451 33.0925 12.907 33.2254 12.9403 33.2919C12.9736 33.3583 13.0488 33.4962 13.1074 33.5982C13.1661 33.7003 13.2768 33.8769 13.3537 33.9909C13.4305 34.1048 13.5668 34.2898 13.6568 34.402C13.7468 34.514 13.8872 34.6778 13.9688 34.7659C14.0503 34.8541 14.1937 34.9972 14.2871 35.0841C14.3808 35.171 14.5294 35.3004 14.6174 35.3717C14.7056 35.443 14.8485 35.5521 14.9352 35.614C15.0219 35.6759 15.1754 35.778 15.2764 35.8409C15.3775 35.9037 15.5735 36.0135 15.712 36.0848C15.8506 36.156 16.0537 36.2522 16.1633 36.2985C16.2729 36.3449 16.473 36.4196 16.6078 36.4648C16.7428 36.5099 16.9544 36.5722 17.0781 36.603C17.2019 36.6338 17.393 36.6748 17.5029 36.6942C17.6128 36.7136 17.7749 36.7386 17.863 36.7498C17.951 36.761 18.1423 36.7776 18.2878 36.7866C18.4445 36.7963 18.6575 36.7991 18.8102 36.7937C18.952 36.7887 19.1589 36.7752 19.2699 36.7636C19.381 36.7522 19.5493 36.7304 19.644 36.7152C19.7387 36.7 19.8892 36.6719 19.9783 36.6527C20.0675 36.6335 20.2189 36.596 20.3146 36.5697C20.4104 36.5432 20.5702 36.4942 20.6698 36.4606C20.7694 36.427 20.9354 36.3649 21.0389 36.3224C21.1424 36.2799 21.2937 36.2139 21.3752 36.1756C21.4567 36.1373 21.5946 36.0668 21.6816 36.0189C21.7687 35.971 21.9151 35.8849 22.007 35.8275C22.0989 35.7701 22.2368 35.6787 22.3135 35.6245C22.3901 35.5704 22.528 35.4653 22.6199 35.3914C22.7118 35.3174 22.8635 35.1872 22.957 35.1019C23.0506 35.0166 23.2034 34.864 23.2969 34.7624C23.3902 34.6609 23.5319 34.4964 23.6117 34.3968C23.6915 34.2972 23.828 34.1092 23.9149 33.9789C24.0018 33.8487 24.1087 33.6798 24.152 33.6038C24.1955 33.5277 24.274 33.3798 24.3265 33.2749C24.3791 33.1701 24.4498 33.0193 24.4838 32.9396C24.5179 32.8598 24.5771 32.7101 24.6154 32.6067C24.6537 32.5034 24.7109 32.3305 24.7423 32.2227C24.7737 32.1147 24.8183 31.9439 24.8411 31.843C24.8641 31.742 24.8952 31.5857 24.9103 31.4958C24.9254 31.4058 24.9442 31.2821 24.952 31.2209C24.9599 31.1596 24.973 31.031 24.9811 30.9353C24.9892 30.8395 24.9957 30.6045 24.9956 30.4129C24.9956 30.2068 24.9867 29.9737 24.974 29.8418C24.9623 29.7192 24.9397 29.5374 24.924 29.4378C24.9083 29.3382 24.8766 29.1704 24.8538 29.0649C24.8309 28.9594 24.7844 28.776 24.7504 28.6575C24.7163 28.539 24.6579 28.3587 24.6205 28.2569C24.583 28.1551 24.5259 28.0094 24.4934 27.933C24.4611 27.8566 24.3887 27.7021 24.3327 27.5895C24.2765 27.4771 24.1916 27.3172 24.1439 27.2343C24.0961 27.1516 24.0099 27.0116 23.9521 26.9235C23.8943 26.8354 23.7879 26.6849 23.7156 26.5892C23.6433 26.4934 23.53 26.3524 23.4642 26.2758C23.3981 26.1994 23.2754 26.0655 23.1914 25.9786C23.1073 25.8918 22.9691 25.7586 22.8843 25.683C22.7994 25.6072 22.6582 25.4885 22.5704 25.419C22.4827 25.3495 22.3201 25.2311 22.209 25.1556C22.0979 25.0803 21.9163 24.9666 21.8054 24.9029C21.6946 24.8394 21.5096 24.7422 21.3945 24.687C21.2793 24.632 21.1062 24.555 21.0098 24.516C20.9132 24.4771 20.7409 24.4141 20.6267 24.3761C20.5125 24.3381 20.3062 24.2789 20.1683 24.2443C20.0303 24.2099 19.8204 24.1658 19.7016 24.1461C19.5829 24.1267 19.3949 24.1007 19.2837 24.0887C19.1727 24.0766 18.9189 24.0644 18.7197 24.0614Z" fill="#31C48D"/>
</svg>
