<svg width="352" height="208" viewBox="0 0 352 208" fill="none" xmlns="http://www.w3.org/2000/svg">
<rect width="352" height="208" rx="8" fill="#EEEEEE"/>
<path d="M-2.93359 106.593C9.30852 106.593 21.5506 106.593 33.7927 106.593C49.9985 106.593 66.3933 105.562 82.723 105.562C98.7416 105.562 114.183 111.062 129.992 113.011C140.065 114.253 149.818 114.844 159.957 114.844C166.16 114.844 170.546 114.928 175.713 111.292C181.155 107.463 188.231 86.3006 182.703 81.3262C177.923 77.0241 174.908 73.1869 167.921 71.7579C164.272 71.0114 160.137 71.5287 156.405 71.5287C152.69 71.5287 153.612 77.9321 154.056 80.2376C155.766 89.1312 171.362 97.2315 178.349 102.239C181.256 104.322 190.88 107.623 191.928 111.292C193.453 116.628 168.858 125.344 165.286 126.761C158.862 129.311 152.465 131.345 145.519 131.345C142.41 131.345 135.709 132.708 133.258 130.256C128.413 125.412 161.415 117.051 165.744 116.391C185.016 113.451 241.007 108.229 218.456 74.9664C206.057 56.6783 184.958 33.6308 162.192 29.2447C159.17 28.6626 149.144 26.2424 146.607 29.3593C141.559 35.5611 145.674 47.2301 148.441 53.3088C153.446 64.3047 162.971 72.423 171.359 80.8105C181.352 90.8035 192.157 100.276 201.668 110.719C209.684 119.521 225.934 136.786 217.424 149.794C206.388 166.665 177.371 183.668 156.462 179.588C139.872 176.351 140.08 146.356 147.868 135.871C158.472 121.596 177.254 118.014 191.412 108.427C197.304 104.438 204.057 100.844 209.059 95.7073C213.332 91.3189 213.245 84.1121 213.414 78.4041C214.053 56.823 195.772 35.5921 175.026 31.0209C157.976 27.264 134.224 30.5883 132.284 51.9337C131.729 58.0343 131.835 66.0302 135.95 70.9557C142.643 78.9651 154.722 83.4561 164.025 87.3422C178.829 93.5261 195.898 96.909 209.976 104.588C217.301 108.583 192.026 123.581 189.579 124.699C176.083 130.865 151.593 135.662 140.763 122.407C137.365 118.248 124.487 99.1799 130.908 93.1864C134.931 89.4318 144.604 91.1237 149.358 91.1237C159.48 91.1237 169.602 91.1237 179.724 91.1237C192.271 91.1237 204.779 90.7294 217.253 92.155C222.39 92.7422 227.834 95.0596 230.201 89.2903C232.891 82.733 234.155 75.5867 234.155 68.492C234.155 50.4983 214.766 47.568 200.58 47.8084C189.131 48.0025 177.316 52.8507 176.573 65.8565C175.443 85.6301 197.097 104.81 210.893 115.761C219.139 122.306 227.918 128.338 235.874 135.241C238.105 137.177 241.419 139.87 242.291 142.919C244.913 152.099 220.115 152.897 216.164 153.461C201.208 155.598 190.59 151.559 178.807 142.919C174.928 140.074 167.422 136.059 166.26 130.829C165.446 127.169 167.596 123.181 169.526 120.287C175.476 111.361 181.883 102.696 188.146 93.9885C193.113 87.0838 200.383 75.1838 209.288 73.3621C217.843 71.6123 223.339 73.7402 231.118 77.1436C237.519 79.9441 244.551 80.9114 250.77 83.6753C255.71 85.8705 262.907 84.9358 268.303 84.9358C275.35 84.9358 282.397 84.9358 289.445 84.9358C296.728 84.9358 303.707 82.8732 311.102 82.8732C317.242 82.8732 323.31 82.1664 329.15 81.8419C337.391 81.384 348.014 78.2042 354.933 73.5913" stroke="black" stroke-width="3.09395" stroke-linecap="round"/>
</svg>
