<svg width="151" height="37" viewBox="0 0 151 37" fill="none" xmlns="http://www.w3.org/2000/svg">
<path d="M52.5611 29.2422H51.9598V20.5537C51.9598 18.2688 51.6391 16.6053 50.9978 15.563C50.3765 14.5208 49.3643 13.9997 47.9613 13.9997C47.1997 13.9997 46.4481 14.14 45.7065 14.4206C44.985 14.6812 44.3135 15.052 43.6922 15.533C43.0709 16.014 42.5297 16.5852 42.0688 17.2466C41.6078 17.908 41.2671 18.6196 41.0466 19.3812V29.2422H40.4453V13.6389H41.0466V17.6675C41.3673 17.0462 41.7781 16.475 42.2792 15.9539C42.7803 15.4127 43.3314 14.9618 43.9327 14.601C44.534 14.2202 45.1754 13.9296 45.8568 13.7291C46.5383 13.5087 47.2297 13.3984 47.9312 13.3984C49.5347 13.3984 50.7071 13.9797 51.4487 15.1421C52.1903 16.2846 52.5611 18.0884 52.5611 20.5537V29.2422Z" fill="#032125" stroke="#032125" stroke-width="1.42325" stroke-miterlimit="2"/>
<path d="M61.5273 29.5428C60.8258 29.5428 60.1644 29.4226 59.5431 29.182C58.9218 28.9215 58.3806 28.5808 57.9196 28.1599C57.4787 27.7189 57.1279 27.2078 56.8674 26.6266C56.6068 26.0454 56.4766 25.424 56.4766 24.7626C56.4766 24.1012 56.6269 23.4999 56.9275 22.9588C57.2482 22.4176 57.6891 21.9567 58.2503 21.5758C58.8316 21.175 59.513 20.8643 60.2947 20.6439C61.0964 20.4234 61.9682 20.3132 62.9103 20.3132C63.8122 20.3132 64.7241 20.3933 65.6461 20.5537C66.568 20.694 67.3998 20.9044 68.1414 21.185V19.4112C68.1414 18.6095 68.0211 17.878 67.7806 17.2166C67.5401 16.5351 67.1894 15.9639 66.7284 15.5029C66.2874 15.0219 65.7463 14.6511 65.1049 14.3905C64.4836 14.13 63.7921 13.9997 63.0305 13.9997C62.2689 13.9997 61.4572 14.1701 60.5953 14.5108C59.7335 14.8315 58.8616 15.3025 57.9798 15.9238L57.619 15.4428C59.6233 14.0799 61.4271 13.3984 63.0305 13.3984C63.8923 13.3984 64.674 13.5387 65.3755 13.8193C66.097 14.0999 66.6983 14.5008 67.1793 15.0219C67.6804 15.543 68.0612 16.1743 68.3218 16.9159C68.6024 17.6575 68.7427 18.4893 68.7427 19.4112V28.0396C68.7427 28.4405 68.903 28.6409 69.2237 28.6409V29.2422C69.0032 29.2422 68.8629 29.2221 68.8028 29.182C68.6024 29.1019 68.442 28.9616 68.3218 28.7611C68.2015 28.5407 68.1414 28.3002 68.1414 28.0396V26.5965C67.4199 27.5385 66.4778 28.2701 65.3154 28.7912C64.1529 29.2923 62.8902 29.5428 61.5273 29.5428ZM61.5273 28.9415C62.8702 28.9415 64.0928 28.691 65.1951 28.1899C66.3175 27.6889 67.1493 27.0174 67.6904 26.1756C67.9911 25.7547 68.1414 25.3439 68.1414 24.943V21.8464C66.538 21.2251 64.7943 20.9144 62.9103 20.9144C62.0284 20.9144 61.2267 21.0046 60.5051 21.185C59.8036 21.3654 59.1923 21.626 58.6712 21.9667C58.1702 22.3074 57.7793 22.7183 57.4987 23.1993C57.2181 23.6603 57.0778 24.1814 57.0778 24.7626C57.0778 25.3439 57.1881 25.895 57.4085 26.4162C57.6491 26.9172 57.9697 27.3582 58.3706 27.739C58.7714 28.1198 59.2424 28.4204 59.7836 28.6409C60.3247 28.8413 60.906 28.9415 61.5273 28.9415Z" fill="#032125" stroke="#032125" stroke-width="1.42325" stroke-miterlimit="2"/>
<path d="M80.6586 14.2399C79.1754 14.3001 77.8927 14.7811 76.8104 15.683C75.7481 16.5849 75.0065 17.8176 74.5857 19.3809V29.2419H73.9844V13.6387H74.5857V17.6672C75.1268 16.5649 75.8484 15.663 76.7503 14.9615C77.6722 14.2399 78.6443 13.8191 79.6665 13.6988C79.8669 13.6788 80.0473 13.6687 80.2076 13.6687C80.388 13.6487 80.5383 13.6387 80.6586 13.6387V14.2399Z" fill="#032125" stroke="#032125" stroke-width="1.42325" stroke-miterlimit="2"/>
<path d="M90.768 14.2399C89.2848 14.3001 88.0021 14.7811 86.9198 15.683C85.8575 16.5849 85.1159 17.8176 84.695 19.3809V29.2419H84.0938V13.6387H84.695V17.6672C85.2362 16.5649 85.9577 15.663 86.8596 14.9615C87.7816 14.2399 88.7537 13.8191 89.7758 13.6988C89.9763 13.6788 90.1567 13.6687 90.317 13.6687C90.4974 13.6487 90.6477 13.6387 90.768 13.6387V14.2399Z" fill="#032125" stroke="#032125" stroke-width="1.42325" stroke-miterlimit="2"/>
<path d="M97.6601 29.5428C96.9586 29.5428 96.2972 29.4226 95.6759 29.182C95.0546 28.9215 94.5134 28.5808 94.0524 28.1599C93.6115 27.7189 93.2608 27.2078 93.0002 26.6266C92.7396 26.0454 92.6094 25.424 92.6094 24.7626C92.6094 24.1012 92.7597 23.4999 93.0603 22.9588C93.381 22.4176 93.822 21.9567 94.3832 21.5758C94.9644 21.175 95.6458 20.8643 96.4275 20.6439C97.2292 20.4234 98.1011 20.3132 99.0431 20.3132C99.945 20.3132 100.857 20.3933 101.779 20.5537C102.701 20.694 103.533 20.9044 104.274 21.185V19.4112C104.274 18.6095 104.154 17.878 103.913 17.2166C103.673 16.5351 103.322 15.9639 102.861 15.5029C102.42 15.0219 101.879 14.6511 101.238 14.3905C100.616 14.13 99.9249 13.9997 99.1633 13.9997C98.4017 13.9997 97.59 14.1701 96.7281 14.5108C95.8663 14.8315 94.9945 15.3025 94.1126 15.9238L93.7518 15.4428C95.7561 14.0799 97.5599 13.3984 99.1633 13.3984C100.025 13.3984 100.807 13.5387 101.508 13.8193C102.23 14.0999 102.831 14.5008 103.312 15.0219C103.813 15.543 104.194 16.1743 104.455 16.9159C104.735 17.6575 104.875 18.4893 104.875 19.4112V28.0396C104.875 28.4405 105.036 28.6409 105.357 28.6409V29.2422C105.136 29.2422 104.996 29.2221 104.936 29.182C104.735 29.1019 104.575 28.9616 104.455 28.7611C104.334 28.5407 104.274 28.3002 104.274 28.0396V26.5965C103.553 27.5385 102.611 28.2701 101.448 28.7912C100.286 29.2923 99.023 29.5428 97.6601 29.5428ZM97.6601 28.9415C99.003 28.9415 100.226 28.691 101.328 28.1899C102.45 27.6889 103.282 27.0174 103.823 26.1756C104.124 25.7547 104.274 25.3439 104.274 24.943V21.8464C102.671 21.2251 100.927 20.9144 99.0431 20.9144C98.1612 20.9144 97.3595 21.0046 96.6379 21.185C95.9365 21.3654 95.3252 21.626 94.804 21.9667C94.303 22.3074 93.9121 22.7183 93.6316 23.1993C93.351 23.6603 93.2107 24.1814 93.2107 24.7626C93.2107 25.3439 93.3209 25.895 93.5414 26.4162C93.7819 26.9172 94.1025 27.3582 94.5034 27.739C94.9043 28.1198 95.3753 28.4204 95.9164 28.6409C96.4576 28.8413 97.0388 28.9415 97.6601 28.9415Z" fill="#032125" stroke="#032125" stroke-width="1.42325" stroke-miterlimit="2"/>
<path d="M116.821 29.5423C116.2 29.5423 115.589 29.4521 114.988 29.2717C114.406 29.0913 113.845 28.8408 113.304 28.5201C112.783 28.1994 112.292 27.8286 111.831 27.4077C111.39 26.9668 111.019 26.4958 110.718 25.9947V29.2416H110.117V7.29492H110.718V17.2762C111.52 16.1538 112.442 15.2318 113.484 14.5103C114.527 13.7687 115.729 13.3979 117.092 13.3979C118.234 13.3979 119.257 13.6384 120.159 14.1194C121.061 14.6005 121.812 15.2318 122.413 16.0135C123.035 16.7751 123.506 17.6369 123.826 18.599C124.167 19.561 124.337 20.5231 124.337 21.4851C124.337 22.5474 124.147 23.5696 123.766 24.5516C123.385 25.5137 122.854 26.3655 122.173 27.1071C121.491 27.8487 120.69 28.4399 119.768 28.8809C118.866 29.3218 117.884 29.5423 116.821 29.5423ZM116.821 28.941C117.824 28.941 118.746 28.7305 119.587 28.3096C120.449 27.8687 121.181 27.2975 121.782 26.596C122.403 25.8945 122.884 25.1028 123.225 24.2209C123.566 23.319 123.736 22.4071 123.736 21.4851C123.736 20.5231 123.576 19.5911 123.255 18.6892C122.934 17.7873 122.473 16.9956 121.872 16.3141C121.291 15.6126 120.589 15.0514 119.768 14.6305C118.966 14.2096 118.074 13.9992 117.092 13.9992C116.35 13.9992 115.649 14.1295 114.988 14.39C114.346 14.6305 113.755 14.9612 113.214 15.3821C112.693 15.803 112.222 16.2841 111.801 16.8252C111.38 17.3664 111.019 17.9376 110.718 18.5388V24.2209C110.759 24.8623 110.979 25.4736 111.38 26.0548C111.801 26.616 112.312 27.1171 112.913 27.558C113.514 27.9789 114.166 28.3197 114.867 28.5802C115.569 28.8207 116.22 28.941 116.821 28.941Z" fill="#032125" stroke="#032125" stroke-width="1.42325" stroke-miterlimit="2"/>
<path d="M128.859 7.29492H129.461V26.9267C129.461 27.5079 129.641 27.9689 130.002 28.3096C130.363 28.6504 130.844 28.8207 131.445 28.8207C131.665 28.8207 131.926 28.8007 132.227 28.7606C132.547 28.7005 132.838 28.6303 133.098 28.5502L133.309 29.0312C133.028 29.1314 132.677 29.2116 132.257 29.2717C131.856 29.3519 131.515 29.392 131.234 29.392C130.533 29.392 129.962 29.1715 129.521 28.7305C129.08 28.2696 128.859 27.6683 128.859 26.9267V7.29492Z" fill="#032125" stroke="#032125" stroke-width="1.42325" stroke-miterlimit="2"/>
<path d="M142.633 29.5428C141.611 29.5428 140.639 29.3324 139.717 28.9115C138.815 28.4705 138.023 27.8793 137.342 27.1377C136.66 26.3761 136.119 25.5042 135.718 24.5221C135.318 23.52 135.117 22.4577 135.117 21.3353C135.117 20.233 135.308 19.2008 135.688 18.2387C136.069 17.2767 136.59 16.4349 137.252 15.7134C137.933 14.9918 138.715 14.4306 139.597 14.0298C140.499 13.6089 141.461 13.3984 142.483 13.3984C143.525 13.3984 144.497 13.6089 145.399 14.0298C146.321 14.4507 147.113 15.0219 147.774 15.7434C148.456 16.465 148.997 17.3168 149.398 18.2989C149.798 19.281 149.999 20.3332 149.999 21.4556V21.7863H135.718C135.799 22.7884 136.029 23.7304 136.41 24.6123C136.811 25.4741 137.322 26.2257 137.943 26.8671C138.565 27.5085 139.276 28.0196 140.078 28.4004C140.899 28.7611 141.761 28.9415 142.663 28.9415C143.265 28.9415 143.846 28.8614 144.407 28.701C144.988 28.5407 145.529 28.3202 146.03 28.0396C146.531 27.739 146.972 27.3882 147.353 26.9874C147.734 26.5865 148.035 26.1456 148.255 25.6646L148.826 25.8149C148.606 26.356 148.285 26.8571 147.864 27.3181C147.463 27.759 146.982 28.1498 146.421 28.4906C145.88 28.8112 145.279 29.0618 144.617 29.2422C143.976 29.4426 143.315 29.5428 142.633 29.5428ZM149.368 21.185C149.307 20.1428 149.087 19.1808 148.706 18.2989C148.325 17.417 147.824 16.6654 147.203 16.0441C146.602 15.4027 145.9 14.9016 145.098 14.5409C144.297 14.1801 143.435 13.9997 142.513 13.9997C141.591 13.9997 140.729 14.1801 139.927 14.5409C139.126 14.9016 138.414 15.4027 137.793 16.0441C137.192 16.6854 136.711 17.4471 136.35 18.3289C135.989 19.2108 135.779 20.1628 135.718 21.185H149.368Z" fill="#032125" stroke="#032125" stroke-width="1.42325" stroke-miterlimit="2"/>
<path d="M19.0679 1.60344e-05C18.976 0.00135221 18.8664 0.00433392 18.8242 0.0064384C18.7821 0.00877671 18.663 0.0172943 18.5595 0.0255118C18.456 0.0338629 18.268 0.0564454 18.1416 0.0757999C18.0153 0.0951745 17.8272 0.129977 17.7237 0.153103C17.6204 0.176219 17.4417 0.222062 17.3268 0.255076C17.2118 0.288079 17.033 0.346166 16.9294 0.384471C16.8256 0.422639 16.6783 0.480452 16.602 0.512908C16.5255 0.545377 16.3754 0.61585 16.2681 0.669481C16.1609 0.723109 16.0074 0.804867 15.9268 0.851112C15.8465 0.897497 15.7116 0.98038 15.6274 1.03526C15.5431 1.09001 15.3989 1.19128 15.307 1.26009C15.2151 1.3289 15.0803 1.43491 15.0075 1.49564C14.9348 1.55637 14.782 1.69692 14.668 1.80808C14.5542 1.91924 14.4032 2.07595 14.3328 2.15646C14.2621 2.23684 14.1538 2.36652 14.0918 2.44467C14.0299 2.52268 13.9262 2.66378 13.8614 2.75808C13.7966 2.85239 13.6946 3.01106 13.6347 3.11064C13.575 3.21024 13.4714 3.40136 13.4045 3.53548C13.3376 3.66948 13.2422 3.88262 13.1925 4.00909C13.1426 4.13543 13.0756 4.32043 13.0434 4.42003C13.0113 4.51963 12.9611 4.69514 12.932 4.81006C12.9029 4.92498 12.8629 5.10982 12.843 5.22097C12.8232 5.33199 12.7976 5.49816 12.7862 5.59012C12.7746 5.68206 12.759 5.84809 12.7513 5.95924C12.7435 6.07025 12.7373 6.2491 12.7371 6.35651C12.737 6.46391 12.7435 6.65197 12.7516 6.77441C12.7597 6.89685 12.7752 7.06485 12.7859 7.14757L12.8055 7.29829L12.771 7.46795C12.7521 7.56142 12.7144 7.72189 12.6874 7.82484C12.6604 7.92778 12.6104 8.09521 12.5764 8.19703C12.5424 8.29886 12.4735 8.47786 12.4232 8.59485C12.373 8.71186 12.2876 8.88918 12.2333 8.98879C12.1791 9.08852 12.0765 9.25776 12.0051 9.36506C11.9338 9.47231 11.8203 9.62902 11.7529 9.7133C11.6856 9.79758 11.5331 9.96403 11.4141 10.0831C11.2951 10.2022 11.1348 10.35 11.0578 10.4113C10.9809 10.4726 10.8549 10.5679 10.7777 10.6231C10.7005 10.6781 10.5535 10.7738 10.451 10.8356C10.3484 10.8973 10.158 11.0003 10.0277 11.0642C9.89745 11.1281 9.68751 11.2212 9.56104 11.2709C9.4347 11.3207 9.24038 11.3904 9.12922 11.4258C9.0182 11.4612 8.80187 11.5211 8.64866 11.559C8.49543 11.5969 8.28552 11.6434 8.182 11.6622C8.07864 11.6812 7.90619 11.7092 7.79892 11.7245C7.69166 11.7399 7.49736 11.7629 7.3671 11.7757C7.19173 11.7929 6.96398 11.7996 6.48953 11.8018C5.97971 11.8041 5.81032 11.8096 5.6607 11.8287C5.55735 11.8418 5.37863 11.8687 5.26373 11.8884C5.14881 11.9081 4.95547 11.9486 4.83414 11.9786C4.71282 12.0084 4.52476 12.0616 4.41625 12.0967C4.30774 12.1319 4.12429 12.1978 4.00839 12.2432C3.8925 12.2888 3.68562 12.3813 3.5487 12.4488C3.41177 12.5164 3.22762 12.6143 3.13947 12.6665C3.05143 12.7188 2.92286 12.799 2.85391 12.8449C2.78496 12.8907 2.68467 12.9599 2.63104 12.9989C2.57741 13.0378 2.45831 13.13 2.36638 13.2038C2.27444 13.2777 2.11773 13.413 2.01813 13.5047C1.91853 13.5965 1.76364 13.7528 1.67407 13.852C1.58436 13.9513 1.46358 14.091 1.40564 14.1623C1.34769 14.2338 1.2481 14.3652 1.1843 14.4544C1.12037 14.5436 1.03052 14.6761 0.984416 14.7489C0.938448 14.8216 0.857928 14.9565 0.805691 15.0484C0.753456 15.1403 0.671831 15.297 0.624193 15.3966C0.576691 15.4962 0.509129 15.6472 0.474164 15.7321C0.43934 15.8169 0.381819 15.9705 0.346441 16.0733C0.311196 16.1761 0.2577 16.3466 0.227749 16.4522C0.197785 16.5579 0.154348 16.7365 0.131363 16.8492C0.108247 16.962 0.0770409 17.1388 0.0618586 17.2423C0.046693 17.3456 0.02661 17.5118 0.0171365 17.6114C0.00764963 17.711 0 17.9585 0 18.1616C0 18.3646 0.00778107 18.6123 0.0174015 18.7119C0.0268884 18.8115 0.0470716 18.9775 0.0621236 19.081C0.0773226 19.1843 0.104888 19.3442 0.123554 19.4362C0.142094 19.5281 0.176907 19.6786 0.200724 19.7705C0.224542 19.8625 0.272603 20.0254 0.307427 20.1327C0.342392 20.2399 0.39922 20.3997 0.433907 20.4879C0.468591 20.576 0.533923 20.7296 0.579053 20.8292C0.624326 20.9288 0.705807 21.0918 0.760133 21.1913C0.814458 21.2909 0.899991 21.4382 0.950418 21.5187C1.00071 21.5991 1.0854 21.7276 1.13875 21.8043C1.19196 21.8809 1.27958 22 1.33349 22.0689C1.38725 22.1379 1.48796 22.26 1.55747 22.3405C1.62684 22.4209 1.76516 22.5684 1.86475 22.668C1.96449 22.7678 2.11815 22.9111 2.20618 22.9866C2.29436 23.0623 2.44786 23.1853 2.54744 23.2599C2.64703 23.3347 2.80068 23.4428 2.8887 23.5001C2.97687 23.5575 3.12105 23.6451 3.20908 23.6951C3.29726 23.745 3.43962 23.821 3.52555 23.8641C3.61136 23.907 3.76807 23.9793 3.8738 24.0244C3.97938 24.0695 4.16925 24.1421 4.29559 24.1857C4.42208 24.2293 4.64454 24.2952 4.79011 24.3321C4.93568 24.369 5.14881 24.4152 5.26372 24.435C5.37864 24.4547 5.56364 24.4818 5.67467 24.4953C5.82999 24.5142 5.98601 24.5199 6.35024 24.5202C6.64331 24.5204 6.88751 24.5138 6.991 24.5026C7.08293 24.4927 7.2739 24.4657 7.41557 24.4425C7.55709 24.4191 7.78276 24.3725 7.91704 24.3388C8.05118 24.3051 8.24884 24.2487 8.35597 24.2134C8.46324 24.1782 8.64501 24.1113 8.75993 24.0648C8.87499 24.0184 9.06932 23.9304 9.19192 23.8692C9.3145 23.8081 9.46495 23.7294 9.52623 23.6946C9.58752 23.6597 9.72542 23.5739 9.83268 23.504C9.93994 23.4341 10.0884 23.332 10.1628 23.2771C10.2371 23.2221 10.375 23.1129 10.4693 23.0343C10.5634 22.9556 10.741 22.7908 10.8638 22.6682C10.9864 22.5455 11.152 22.3671 11.2315 22.2716C11.3112 22.1762 11.4277 22.0288 11.4907 21.9443C11.5537 21.8596 11.652 21.7182 11.7094 21.6302C11.7668 21.542 11.8565 21.3948 11.9087 21.3028C11.961 21.2109 12.049 21.0416 12.1043 20.9267C12.1596 20.8118 12.2457 20.6143 12.2957 20.4879C12.3457 20.3614 12.4126 20.1734 12.4443 20.07C12.4761 19.9665 12.5265 19.7817 12.5563 19.6591C12.5861 19.5365 12.626 19.3453 12.6449 19.2343C12.6639 19.1231 12.6891 18.935 12.7011 18.8164C12.7129 18.6975 12.7291 18.4437 12.7369 18.2522C12.7447 18.0607 12.7639 17.7916 12.7795 17.6542C12.7951 17.517 12.8235 17.3195 12.8424 17.2154C12.8615 17.1115 12.8959 16.948 12.9189 16.8523C12.9419 16.7565 12.9862 16.5935 13.0173 16.4901C13.0483 16.3866 13.1084 16.2143 13.1507 16.107C13.1932 15.9998 13.2676 15.8305 13.3161 15.7309C13.3645 15.6313 13.4484 15.4755 13.5024 15.3847C13.5565 15.2937 13.6416 15.1608 13.6916 15.0891C13.7416 15.0173 13.8379 14.8909 13.9056 14.808C13.9733 14.7251 14.0811 14.602 14.1449 14.5344C14.2088 14.467 14.3335 14.348 14.4219 14.27C14.5104 14.1922 14.6468 14.0799 14.7249 14.0207C14.8032 13.9613 14.938 13.867 15.0244 13.8112C15.1109 13.7552 15.2329 13.68 15.2956 13.6443C15.3583 13.6085 15.4899 13.5391 15.5881 13.4902C15.6863 13.4413 15.8124 13.3813 15.8682 13.3569C15.9241 13.3327 16.04 13.2856 16.1259 13.2525C16.2117 13.2195 16.3796 13.1604 16.4988 13.1214C16.6181 13.0824 16.8155 13.0257 16.9376 12.9952C17.0598 12.9647 17.2537 12.9211 17.3686 12.8981C17.4835 12.8752 17.6656 12.8436 17.7734 12.8277C17.8811 12.812 18.0534 12.79 18.1565 12.7788C18.2594 12.7677 18.4082 12.7543 18.4869 12.7491C18.5656 12.7438 18.8351 12.7381 19.0859 12.7365C19.3366 12.7349 19.6075 12.7262 19.6879 12.7173C19.7684 12.7083 19.9205 12.6886 20.0259 12.6734C20.1315 12.6582 20.2945 12.63 20.3881 12.6106C20.4819 12.5912 20.643 12.5534 20.7465 12.5265C20.85 12.4995 21.0373 12.4426 21.1629 12.4001C21.2884 12.3576 21.479 12.2858 21.5865 12.2404C21.694 12.1949 21.8953 12.0995 22.0339 12.0282C22.1724 11.957 22.3642 11.8498 22.4599 11.79C22.5557 11.7301 22.6967 11.6371 22.7733 11.583C22.8499 11.5291 22.9722 11.4377 23.0449 11.3801C23.1178 11.3225 23.2432 11.2177 23.3235 11.1472C23.404 11.0767 23.5577 10.929 23.6652 10.819C23.7726 10.7089 23.9206 10.5467 23.994 10.4586C24.0674 10.3706 24.1744 10.235 24.2318 10.1575C24.2891 10.08 24.371 9.96398 24.4138 9.89976C24.4564 9.83554 24.5332 9.71408 24.5842 9.62981C24.6353 9.54554 24.7419 9.34495 24.8211 9.18406C24.9002 9.02317 24.9945 8.81634 25.0306 8.72438C25.0666 8.63244 25.1239 8.47282 25.1581 8.36959C25.1921 8.26637 25.2443 8.08766 25.274 7.97257C25.3036 7.85738 25.344 7.67951 25.3638 7.57727C25.3835 7.47503 25.4119 7.29645 25.4269 7.18029C25.4419 7.06426 25.4616 6.83315 25.4704 6.66687C25.4826 6.43689 25.4826 6.29354 25.4702 6.06846C25.4612 5.90562 25.4414 5.67509 25.4261 5.556C25.4109 5.4369 25.3796 5.24552 25.3564 5.1306C25.3334 5.01568 25.2925 4.83808 25.2655 4.73599C25.2386 4.63389 25.1883 4.46491 25.1538 4.36072C25.1194 4.25652 25.0593 4.09243 25.0204 3.99618C24.9816 3.89993 24.9047 3.72706 24.8497 3.61186C24.7945 3.4968 24.6973 3.31182 24.6338 3.20092C24.5701 3.09004 24.4564 2.9084 24.381 2.79739C24.3055 2.68624 24.1855 2.52244 24.1145 2.43329C24.0434 2.34399 23.9209 2.19884 23.842 2.11067C23.7633 2.02236 23.6224 1.87638 23.5289 1.78626C23.4353 1.696 23.2834 1.55962 23.1914 1.48286C23.0994 1.40625 22.9677 1.30177 22.8987 1.25051C22.8297 1.19939 22.6918 1.10412 22.5922 1.03879C22.4926 0.973458 22.3485 0.883888 22.2719 0.839867C22.1952 0.79571 22.0323 0.710179 21.9097 0.649867C21.7871 0.589549 21.5772 0.49692 21.443 0.444128C21.309 0.391335 21.1153 0.322389 21.0126 0.290908C20.9099 0.259441 20.7532 0.215406 20.6644 0.193115C20.5755 0.170834 20.4192 0.136427 20.317 0.116648C20.2147 0.0968728 20.036 0.068451 19.92 0.0535459C19.8038 0.0386475 19.6023 0.0199743 19.472 0.0121777C19.3418 0.00422749 19.1599 -0.00121993 19.0679 1.60344e-05ZM18.7197 24.0612C18.5205 24.0582 18.2854 24.0614 18.1973 24.0681C18.1093 24.0749 17.9556 24.0905 17.8561 24.103C17.7565 24.1154 17.5904 24.1409 17.487 24.1596C17.3836 24.1782 17.2082 24.216 17.0972 24.2434C16.9863 24.2709 16.7982 24.3246 16.6793 24.3631C16.5605 24.4014 16.3691 24.4705 16.2542 24.5166C16.1392 24.5626 15.9512 24.6461 15.8363 24.7023C15.7213 24.7584 15.549 24.8492 15.4532 24.9042C15.3575 24.9594 15.1788 25.0724 15.0562 25.1555C14.9336 25.2386 14.7603 25.3648 14.6713 25.4359C14.5822 25.507 14.4292 25.6372 14.3313 25.7254C14.2335 25.8134 14.0757 25.9697 13.9805 26.0727C13.8855 26.1756 13.7492 26.3323 13.6776 26.4209C13.6061 26.5095 13.4975 26.6523 13.4362 26.7381C13.3749 26.8238 13.2699 26.9837 13.2027 27.0933C13.1356 27.2028 13.0319 27.3865 12.9725 27.5015C12.913 27.6164 12.827 27.7982 12.7813 27.9054C12.7357 28.0127 12.6699 28.179 12.6351 28.275C12.6003 28.3709 12.5465 28.537 12.5154 28.6441C12.4845 28.7511 12.4408 28.9202 12.4182 29.0198C12.3958 29.1193 12.3646 29.276 12.349 29.368C12.3335 29.4601 12.3096 29.6293 12.2959 29.7441C12.2767 29.9061 12.2711 30.0595 12.2711 30.4266C12.2711 30.7887 12.2767 30.9479 12.2952 31.1022C12.3084 31.2132 12.332 31.3794 12.3474 31.4713C12.3629 31.5633 12.3938 31.72 12.4161 31.8196C12.4384 31.9192 12.4856 32.1009 12.5211 32.2235C12.5567 32.3461 12.6173 32.531 12.6558 32.6345C12.6946 32.7378 12.7607 32.9008 12.8029 32.9967C12.8451 33.0923 12.907 33.2252 12.9403 33.2917C12.9736 33.3581 13.0488 33.496 13.1074 33.598C13.1661 33.7001 13.2768 33.8767 13.3537 33.9907C13.4305 34.1046 13.5668 34.2896 13.6568 34.4018C13.7468 34.5138 13.8872 34.6776 13.9688 34.7657C14.0503 34.8539 14.1937 34.997 14.2871 35.0839C14.3808 35.1708 14.5294 35.3002 14.6174 35.3715C14.7056 35.4428 14.8485 35.5519 14.9352 35.6138C15.0219 35.6757 15.1754 35.7778 15.2764 35.8407C15.3775 35.9035 15.5735 36.0133 15.712 36.0846C15.8506 36.1558 16.0537 36.252 16.1633 36.2983C16.2729 36.3447 16.473 36.4194 16.6078 36.4646C16.7428 36.5097 16.9544 36.572 17.0781 36.6028C17.2019 36.6336 17.393 36.6746 17.5029 36.694C17.6128 36.7134 17.7749 36.7384 17.863 36.7496C17.951 36.7608 18.1423 36.7774 18.2878 36.7864C18.4445 36.7961 18.6575 36.7989 18.8102 36.7935C18.952 36.7885 19.1589 36.775 19.2699 36.7634C19.381 36.752 19.5493 36.7302 19.644 36.715C19.7387 36.6998 19.8892 36.6717 19.9783 36.6525C20.0675 36.6333 20.2189 36.5958 20.3146 36.5695C20.4104 36.543 20.5702 36.494 20.6698 36.4604C20.7694 36.4268 20.9354 36.3647 21.0389 36.3222C21.1424 36.2797 21.2937 36.2137 21.3752 36.1754C21.4567 36.1371 21.5946 36.0666 21.6816 36.0187C21.7687 35.9708 21.9151 35.8847 22.007 35.8273C22.0989 35.7699 22.2368 35.6785 22.3135 35.6243C22.3901 35.5702 22.528 35.4651 22.6199 35.3912C22.7118 35.3172 22.8635 35.187 22.957 35.1017C23.0506 35.0164 23.2034 34.8638 23.2969 34.7622C23.3902 34.6607 23.5319 34.4962 23.6117 34.3966C23.6915 34.297 23.828 34.109 23.9149 33.9787C24.0018 33.8485 24.1087 33.6796 24.152 33.6036C24.1955 33.5275 24.274 33.3796 24.3265 33.2747C24.3791 33.1699 24.4498 33.0191 24.4838 32.9394C24.5179 32.8596 24.5771 32.7099 24.6154 32.6065C24.6537 32.5032 24.7109 32.3303 24.7423 32.2225C24.7737 32.1145 24.8183 31.9437 24.8411 31.8428C24.8641 31.7418 24.8952 31.5855 24.9103 31.4956C24.9254 31.4056 24.9442 31.2819 24.952 31.2207C24.9599 31.1594 24.973 31.0308 24.9811 30.9351C24.9892 30.8393 24.9957 30.6043 24.9956 30.4127C24.9956 30.2066 24.9867 29.9735 24.974 29.8416C24.9623 29.719 24.9397 29.5372 24.924 29.4376C24.9083 29.338 24.8766 29.1702 24.8538 29.0647C24.8309 28.9592 24.7844 28.7758 24.7504 28.6573C24.7163 28.5388 24.6579 28.3585 24.6205 28.2567C24.583 28.1549 24.5259 28.0092 24.4934 27.9328C24.4611 27.8564 24.3887 27.7019 24.3327 27.5893C24.2765 27.4769 24.1916 27.317 24.1439 27.2341C24.0961 27.1514 24.0099 27.0114 23.9521 26.9233C23.8943 26.8352 23.7879 26.6847 23.7156 26.589C23.6433 26.4932 23.53 26.3522 23.4642 26.2756C23.3981 26.1992 23.2754 26.0653 23.1914 25.9784C23.1073 25.8916 22.9691 25.7584 22.8843 25.6828C22.7994 25.607 22.6582 25.4883 22.5704 25.4188C22.4827 25.3493 22.3201 25.2309 22.209 25.1554C22.0979 25.0801 21.9163 24.9664 21.8054 24.9027C21.6946 24.8392 21.5096 24.742 21.3945 24.6868C21.2793 24.6318 21.1062 24.5548 21.0098 24.5158C20.9132 24.4769 20.7409 24.4139 20.6267 24.3759C20.5125 24.3379 20.3062 24.2787 20.1683 24.2441C20.0303 24.2097 19.8204 24.1656 19.7016 24.1459C19.5829 24.1265 19.3949 24.1005 19.2837 24.0885C19.1727 24.0764 18.9189 24.0642 18.7197 24.0612Z" fill="#31C48D"/>
</svg>
