<svg width="143" height="40" viewBox="0 0 143 40" fill="none" xmlns="http://www.w3.org/2000/svg">
<g clip-path="url(#clip0_3941_28004)">
<path d="M63.8524 31.9213L58.5854 22.6176H56.3257V31.9213H51.5312V8.04639H60.4977C62.3461 8.04639 63.9211 8.37121 65.2227 9.02083C66.4356 9.59148 67.453 10.5072 68.1474 11.6531C68.8478 12.8814 69.1831 14.2841 69.1136 15.6962C69.044 17.1083 68.5726 18.4712 67.7548 19.6249C66.8414 20.8903 65.4835 21.7624 63.6816 22.2412L69.3974 31.9213H63.8524ZM56.323 19.0215H60.3294C61.631 19.0215 62.6008 18.7074 63.2383 18.079C63.8758 17.4508 64.1953 16.5787 64.1971 15.4628C64.1971 14.3682 63.8775 13.5184 63.2383 12.9132C62.599 12.3081 61.6292 12.0064 60.3294 12.0082H56.323V19.0215Z" fill="#00245B"/>
<path d="M72.0816 9.91012C71.8158 9.64877 71.6047 9.3371 71.4606 8.99335C71.3165 8.64959 71.2422 8.28059 71.2422 7.90785C71.2422 7.53512 71.3165 7.16614 71.4606 6.82237C71.6047 6.4786 71.8158 6.16696 72.0816 5.90559C72.6606 5.38812 73.4099 5.10205 74.1865 5.10205C74.9631 5.10205 75.7124 5.38812 76.2911 5.90559C76.5563 6.16732 76.767 6.47909 76.9108 6.8228C77.0543 7.16652 77.1284 7.53534 77.1284 7.90785C77.1284 8.28037 77.0543 8.64919 76.9108 8.99291C76.767 9.33662 76.5563 9.64839 76.2911 9.91012C75.7124 10.4276 74.9631 10.7137 74.1865 10.7137C73.4099 10.7137 72.6606 10.4276 72.0816 9.91012ZM76.5475 12.9723V31.927H71.7558V12.9723H76.5475Z" fill="#00245B"/>
<path d="M85.8311 16.9046V26.0723C85.8311 26.7096 85.985 27.1714 86.2931 27.458C86.6013 27.7444 87.1202 27.8869 87.8504 27.8851H90.0752V31.9215H87.057C83.0184 31.9215 80.9993 29.9639 80.9993 26.0483V16.9046H78.7422V12.9721H80.9993V8.28418H85.8311V12.9721H90.0752V16.9046H85.8311Z" fill="#00245B"/>
<path d="M98.0756 16.9046V26.0723C98.0756 26.7096 98.2297 27.1714 98.5378 27.458C98.8458 27.7444 99.3649 27.8869 100.095 27.8851H102.32V31.9215H99.3069C95.2685 31.9215 93.2492 29.9639 93.2492 26.0483V16.9046H90.9922V12.9721H93.2492V8.28418H98.0756V12.9721H102.32V16.9046H98.0756Z" fill="#00245B"/>
<path d="M122.238 23.8829H108.376C108.492 25.2516 108.972 26.324 109.816 27.0999C110.664 27.8765 111.78 28.2931 112.93 28.2613C114.711 28.2613 115.977 27.4977 116.728 25.9706H121.889C121.356 27.7725 120.251 29.3518 118.74 30.4691C117.187 31.6438 115.282 32.2311 113.023 32.2311C111.309 32.2582 109.616 31.8397 108.112 31.0163C106.676 30.2193 105.5 29.0254 104.725 27.5777C103.89 25.9984 103.472 24.2324 103.51 22.4466C103.47 20.6515 103.882 18.875 104.709 17.2808C105.468 15.8378 106.633 14.6488 108.061 13.8609C109.576 13.0791 111.255 12.6682 112.959 12.6622C114.664 12.6561 116.346 13.0551 117.866 13.8262C119.27 14.5811 120.424 15.7287 121.186 17.1286C121.994 18.6359 122.401 20.3257 122.367 22.0356C122.374 22.6538 122.332 23.2716 122.238 23.8829ZM117.412 20.6793C117.423 20.1177 117.308 19.5609 117.077 19.049C116.846 18.5368 116.505 18.0825 116.077 17.7186C115.188 16.9709 114.056 16.5756 112.895 16.608C111.798 16.5724 110.728 16.954 109.901 17.6759C109.089 18.3879 108.592 19.3854 108.411 20.6686L117.412 20.6793Z" fill="#00245B"/>
<path d="M140.14 14.8356C141.53 16.2594 142.226 18.2492 142.228 20.8049V31.9215H137.437V21.4537C137.437 19.9516 137.06 18.7948 136.307 17.9832C135.553 17.1716 134.527 16.7667 133.227 16.7685C131.902 16.7685 130.858 17.1734 130.094 17.9832C129.33 18.793 128.948 19.9498 128.948 21.4537V31.9215H124.156V12.9668H128.948V15.3268C129.598 14.4967 130.437 13.834 131.395 13.394C132.419 12.9197 133.536 12.6798 134.664 12.6918C136.924 12.6954 138.749 13.41 140.14 14.8356Z" fill="#00245B"/>
<path d="M24.1402 15.8625H32.0713V7.93139H24.1375V0.00292969H17.8161C16.735 0.00292969 15.8594 0.878531 15.8594 1.95968V7.92872H24.1375V15.8625H24.1402Z" fill="#0071C0"/>
<path d="M32.0744 7.92846L24.1406 0V7.92846H32.0744Z" fill="#00A6DD"/>
<path d="M15.8596 15.8628V7.93164H7.92846V15.8654H0V22.1868C0 23.268 0.875599 24.1436 1.95675 24.1436H7.92579V15.8654H15.8596V15.8628Z" fill="#0071C0"/>
<path d="M7.92846 7.92871L0 15.8625H7.92846V7.92871Z" fill="#00A6DD"/>
<path d="M15.8608 24.1377H7.92969V32.0688H15.8635V39.9973H22.1849C23.266 39.9973 24.1416 39.1217 24.1416 38.0405V32.0715H15.8635V24.1377H15.8608Z" fill="#0071C0"/>
<path d="M7.92969 32.0713L15.8608 39.9997V32.0713H7.92969Z" fill="#00A6DD"/>
<path d="M24.1406 24.1378V32.0689H32.0718V24.1351H40.0002V17.8137C40.0002 16.7325 39.1246 15.8569 38.0435 15.8569H32.0744V24.1351H24.1406V24.1378Z" fill="#0071C0"/>
<path d="M32.0781 32.0715L40.0066 24.1377H32.0781V32.0715Z" fill="#00A6DD"/>
</g>
<defs>
<clipPath id="clip0_3941_28004">
<rect width="143" height="40" fill="white"/>
</clipPath>
</defs>
</svg>
