<svg width="160" height="30" viewBox="0 0 160 30" fill="none" xmlns="http://www.w3.org/2000/svg">
<path d="M138.704 5.39551H134.336V28.3343H138.704V5.39551Z" fill="#7348FB"/>
<path d="M92.3991 11.0488H88.0312V28.3419H92.3991V11.0488Z" fill="#7348FB"/>
<path d="M92.4303 5.34668H88.0625V9.78723H92.4303V5.34668Z" fill="#7348FB"/>
<path d="M123.708 10.9438C122.066 10.9438 120.537 11.3968 119.227 12.1894V5.34668H114.859V28.342H119.227V27.0964C120.537 27.8891 122.066 28.342 123.708 28.342C128.513 28.342 132.403 24.4515 132.403 19.647C132.403 14.8344 128.513 10.9438 123.708 10.9438ZM123.708 23.9662C121.322 23.9662 119.381 22.025 119.381 19.6389C119.381 17.2528 121.322 15.3116 123.708 15.3116C126.094 15.3116 128.035 17.2528 128.035 19.6389C128.035 22.025 126.094 23.9662 123.708 23.9662Z" fill="#7348FB"/>
<path d="M149.265 20.8199H157.88C157.928 20.4317 157.96 20.0435 157.96 19.6471C157.96 14.8426 154.07 10.9521 149.265 10.9521C144.461 10.9521 140.57 14.8426 140.57 19.6471C140.57 24.4517 144.461 28.3422 149.265 28.3422C153.132 28.3422 156.407 25.8186 157.54 22.3325H152.654C151.862 23.3274 150.64 23.9744 149.265 23.9744C147.284 23.9744 145.617 22.6398 145.1 20.8199H149.265ZM149.265 15.3117C151.077 15.3117 152.63 16.436 153.277 18.0133H145.254C145.901 16.436 147.454 15.3117 149.265 15.3117Z" fill="#7348FB"/>
<path d="M107.653 12.189C106.342 11.3964 104.814 10.9434 103.172 10.9434C98.3671 10.9434 94.4766 14.8339 94.4766 19.6385C94.4766 24.443 98.3671 28.3335 103.172 28.3335C104.814 28.3335 106.342 27.8806 107.653 27.0879V28.3335H112.02V11.0486H107.653V12.189ZM103.172 23.9658C100.786 23.9658 98.8443 22.0246 98.8443 19.6385C98.8443 17.2524 100.786 15.3112 103.172 15.3112C105.558 15.3112 107.499 17.2524 107.499 19.6385C107.499 22.0246 105.558 23.9658 103.172 23.9658Z" fill="#7348FB"/>
<path d="M56.7662 5.34668H52.3984V9.78723H56.7662V5.34668Z" fill="#7348FB"/>
<path d="M47.9495 12.189C46.6392 11.3964 45.1105 10.9434 43.4685 10.9434C38.664 10.9434 34.7734 14.8339 34.7734 19.6385C34.7734 24.443 38.664 28.3335 43.4685 28.3335C45.1105 28.3335 46.6392 27.8806 47.9495 27.0879V28.3335H52.3173V11.0486H47.9495V12.189ZM43.4685 23.9658C41.0824 23.9658 39.1412 22.0246 39.1412 19.6385C39.1412 17.2524 41.0824 15.3112 43.4685 15.3112C45.8546 15.3112 47.7958 17.2524 47.7958 19.6385C47.7958 22.0246 45.8546 23.9658 43.4685 23.9658Z" fill="#7348FB"/>
<path d="M77.1775 11.0488C74.7914 11.0488 72.6399 12.068 71.1355 13.6937C69.631 12.068 67.4795 11.0488 65.0934 11.0488C63.6941 11.0488 62.3757 11.3966 61.2271 12.0114V11.0488H56.8594V28.3419H61.2271V19.2505C61.2271 19.2505 61.2271 19.2505 61.2352 19.2505C61.2514 17.1313 62.9742 15.4166 65.0934 15.4166C67.1721 15.4166 68.8707 17.0666 68.9516 19.1292V19.2424C68.9516 19.2505 68.9516 19.2667 68.9516 19.2748C68.9516 19.2829 68.9516 19.2909 68.9516 19.299V28.3338H73.3193V19.3071C73.3193 19.3071 73.3193 19.3071 73.3274 19.3071C73.3274 19.299 73.3274 19.2909 73.3274 19.2829C73.3274 19.2424 73.3274 19.2101 73.3274 19.1696C73.384 17.0909 75.0988 15.4166 77.1856 15.4166C79.3129 15.4166 81.0519 17.1475 81.0519 19.2829C81.0519 19.2909 81.0519 19.3071 81.0519 19.3152V28.3419H85.4196V19.2829C85.4115 14.7291 81.7232 11.0488 77.1775 11.0488Z" fill="#7348FB"/>
<path d="M14.8857 21.5634C11.4239 21.5634 8.61719 18.7486 8.61719 15.2949C8.61719 11.8411 11.432 9.02637 14.8857 9.02637C18.3395 9.02637 21.1543 11.8411 21.1543 15.2949C21.1543 18.7486 18.3476 21.5634 14.8857 21.5634ZM14.8857 12.3021C13.2357 12.3021 11.8849 13.6529 11.8849 15.303C11.8849 16.953 13.2357 18.3038 14.8857 18.3038C16.5358 18.3038 17.8865 16.953 17.8865 15.303C17.8865 13.6529 16.5439 12.3021 14.8857 12.3021Z" fill="#7348FB"/>
<path d="M23.7785 25.729L23.8836 25.632C23.8998 25.6239 23.916 25.5997 23.9322 25.5916C26.8845 22.9872 28.5911 19.2422 28.5911 15.3031C28.5911 15.2546 28.5911 15.2061 28.5911 15.1575C28.583 14.2436 28.486 13.3538 28.308 12.4884C27.7418 9.80296 26.383 7.3926 24.5065 5.54035C22.8079 3.86605 20.6725 2.6366 18.2784 2.02188C17.2592 1.76305 16.1915 1.61746 15.0915 1.60129C11.4355 1.54467 7.98987 2.9197 5.36922 5.45138C2.90225 7.84556 1.43824 11.0001 1.21985 14.4053C1.20368 14.7046 1.1875 14.9958 1.1875 15.3031C1.1875 15.3112 1.1875 15.3193 1.1875 15.3355C1.19559 18.9025 2.55445 22.2672 5.03759 24.8393C7.47221 27.3548 10.7076 28.827 14.1856 28.9969C14.4121 29.0049 14.6467 29.013 14.8812 29.013H26.6094L23.7785 25.729ZM14.8893 25.729C14.8327 25.729 14.7761 25.729 14.7195 25.729C14.6062 25.729 14.5011 25.721 14.3878 25.721C8.88769 25.4622 4.47949 20.9084 4.46332 15.3598C4.46332 15.287 4.46332 15.2061 4.46332 15.1414C4.46332 14.9634 4.4714 14.7855 4.47949 14.6075C4.84347 9.18824 9.373 4.88519 14.8893 4.88519C14.9459 4.88519 15.0025 4.88519 15.0592 4.88519C15.868 4.89328 16.6526 5.00652 17.4129 5.19255C19.249 5.65359 20.8909 6.59994 22.2013 7.886C23.6572 9.31765 24.7006 11.178 25.105 13.2487C25.2263 13.8634 25.2991 14.4943 25.3072 15.1333C25.3072 15.2465 25.3072 15.3598 25.3072 15.4811C25.2587 18.4172 23.9726 21.1996 21.7726 23.1408L21.627 23.2621L23.7623 25.7372L14.8893 25.729Z" fill="#7348FB"/>
</svg>
