<svg width="1184" height="231" viewBox="0 0 1184 231" fill="none" xmlns="http://www.w3.org/2000/svg">
<path d="M101.991 226.311H81.4719C46.7709 226.311 28.0626 209.111 28.0626 177.428V96.5594H0V66.3846H28.0626V11.7682H63.6688V66.3846H105.008V96.5594H63.6688V175.014C63.6688 188.592 70.609 196.136 83.8859 196.136H101.991V226.311Z" fill="#0A0A0A"/>
<path d="M171.511 226.311H134.094L86.7195 66.3846H123.231L155.518 182.256L187.202 66.3846H216.773L248.758 181.049L280.442 66.3846H316.953L269.579 226.311H232.766L201.987 117.078L171.511 226.311Z" fill="#0A0A0A"/>
<path d="M379.799 230.837C327.899 230.837 297.724 194.326 297.724 144.839C297.724 92.6366 333.028 61.5566 379.799 61.5566C431.398 61.5566 461.573 97.7663 461.573 144.839C461.573 198.852 427.475 230.837 379.799 230.837ZM379.799 200.361C408.465 200.361 425.363 176.824 425.363 144.839C425.363 113.155 407.56 92.0331 379.799 92.0331C352.038 92.0331 333.934 113.155 333.934 144.839C333.934 179.842 353.547 200.361 379.799 200.361Z" fill="#0A0A0A"/>
<path d="M495.496 226.311H459.89V0H495.496V83.5842C506.359 70.3073 524.766 61.5566 545.586 61.5566C579.684 61.5566 602.013 84.4894 602.013 120.397V226.311H566.407V122.208C566.407 104.405 554.639 92.6366 535.629 92.6366C511.489 92.6366 495.798 108.629 495.496 129.45V226.311Z" fill="#0A0A0A"/>
<path d="M658.723 229.63C621.91 229.63 597.77 211.827 598.071 181.954C598.373 144.537 635.488 136.692 666.568 133.071C690.708 130.355 708.511 129.45 708.813 116.776C708.511 101.086 696.441 90.8261 675.922 90.8261C654.8 90.8261 639.713 102.293 637.6 118.889H601.692C605.012 85.0929 635.186 61.5566 676.526 61.5566C719.676 61.5566 743.514 85.0929 743.514 119.19V191.61C743.514 196.136 745.928 198.55 751.359 198.55H760.11V226.311H743.212C726.918 226.311 716.96 219.673 714.244 207.603C713.641 206.094 713.037 203.982 712.736 202.171C703.382 219.371 685.88 229.63 658.723 229.63ZM665.965 201.568C690.406 201.568 708.813 187.687 708.813 166.263V143.934C702.778 153.288 687.389 155.4 670.491 157.512C650.576 159.926 633.979 162.642 633.979 179.54C633.979 193.42 645.144 201.568 665.965 201.568Z" fill="#0A0A0A"/>
<path d="M789.038 226.311H753.432V66.3846H782.098L785.115 89.9209C795.073 73.3248 815.29 61.5566 839.128 61.5566C873.226 61.5566 895.555 84.4894 895.555 120.397V226.311H859.949V122.208C859.949 104.405 848.18 92.6366 828.265 92.6366C805.031 92.6366 789.34 108.629 789.038 129.45V226.311Z" fill="#0A0A0A"/>
<path d="M965.254 230.837C922.104 230.837 891.024 195.834 891.024 145.443C891.024 95.9559 921.5 61.5566 964.047 61.5566C986.678 61.5566 1005.39 70.9108 1016.55 85.9982V0H1052.16V226.311H1023.49L1020.17 197.947C1011.12 218.164 991.204 230.837 965.254 230.837ZM971.892 200.662C998.144 200.662 1016.55 177.73 1016.55 145.141C1016.55 113.457 998.446 91.4296 972.496 91.4296C945.942 91.4296 927.536 113.759 927.536 145.744C927.536 178.031 945.64 200.662 971.892 200.662Z" fill="#0A0A0A"/>
<path d="M1122.44 230.837C1078.69 230.837 1052.74 210.318 1050.63 175.316H1085.03C1086.23 192.515 1101.02 201.568 1120.63 201.568C1138.74 201.568 1148.39 194.627 1148.39 182.256C1148.39 169.884 1138.13 167.47 1124.25 162.944L1103.13 156.004C1076.58 147.253 1053.64 138.201 1053.64 108.629C1053.64 80.265 1075.37 61.5566 1113.69 61.5566C1150.81 61.5566 1176.15 81.1702 1180.38 117.38H1146.58C1144.77 99.2751 1131.8 90.8261 1113.39 90.8261C1097.7 90.8261 1088.65 97.4646 1088.65 108.328C1088.65 120.699 1102.53 124.018 1113.99 127.941L1133.31 134.278C1164.99 144.839 1184 154.495 1184 183.161C1184 212.732 1161.67 230.837 1122.44 230.837Z" fill="#0A0A0A"/>
</svg>