<svg width="532" height="280" viewBox="0 0 532 280" fill="none" xmlns="http://www.w3.org/2000/svg">
<rect width="532" height="280" rx="8" fill="#EEEEEE"/>
<rect x="0.5" y="0.5" width="531" height="279" rx="7.5" stroke="#181A1D" stroke-opacity="0.1" stroke-dasharray="3 3"/>
<path d="M1 40H132.66C137.078 40 140.66 43.5817 140.66 48V93.3333C140.66 97.7516 137.078 101.333 132.66 101.333H1V40Z" fill="#181A1D"/>
<path d="M39.4943 68.6665H35.8849V58.4847H39.5241C40.5483 58.4847 41.4299 58.6885 42.169 59.0962C42.9081 59.5005 43.4766 60.0822 43.8743 60.8412C44.2753 61.6002 44.4759 62.5084 44.4759 63.5657C44.4759 64.6263 44.2753 65.5377 43.8743 66.3C43.4766 67.0623 42.9048 67.6473 42.1591 68.055C41.4167 68.4627 40.5284 68.6665 39.4943 68.6665ZM38.0376 66.822H39.4048C40.0412 66.822 40.5765 66.7094 41.0107 66.484C41.4482 66.2553 41.7763 65.9023 41.995 65.425C42.2171 64.9444 42.3281 64.3246 42.3281 63.5657C42.3281 62.8133 42.2171 62.1985 41.995 61.7212C41.7763 61.2439 41.4498 60.8926 41.0156 60.6672C40.5814 60.4418 40.0462 60.3291 39.4098 60.3291H38.0376V66.822ZM46.0307 68.6665V61.0301H48.1486V68.6665H46.0307ZM47.0946 60.0458C46.7798 60.0458 46.5096 59.9414 46.2843 59.7326C46.0622 59.5204 45.9512 59.2669 45.9512 58.9719C45.9512 58.6802 46.0622 58.43 46.2843 58.2212C46.5096 58.0091 46.7798 57.903 47.0946 57.903C47.4095 57.903 47.678 58.0091 47.9 58.2212C48.1254 58.43 48.2381 58.6802 48.2381 58.9719C48.2381 59.2669 48.1254 59.5204 47.9 59.7326C47.678 59.9414 47.4095 60.0458 47.0946 60.0458ZM56.1989 63.2077L54.2599 63.327C54.2268 63.1613 54.1555 63.0121 54.0462 62.8796C53.9368 62.7437 53.7926 62.636 53.6136 62.5564C53.438 62.4736 53.2275 62.4321 52.9822 62.4321C52.6541 62.4321 52.3774 62.5017 52.152 62.6409C51.9266 62.7768 51.8139 62.9591 51.8139 63.1878C51.8139 63.3701 51.8868 63.5242 52.0327 63.6502C52.1785 63.7761 52.4287 63.8772 52.7834 63.9534L54.1655 64.2318C54.9079 64.3843 55.4614 64.6296 55.826 64.9676C56.1906 65.3057 56.3729 65.7498 56.3729 66.3C56.3729 66.8005 56.2254 67.2397 55.9304 67.6175C55.6387 67.9953 55.2377 68.2903 54.7273 68.5024C54.2202 68.7112 53.6352 68.8157 52.9723 68.8157C51.9614 68.8157 51.156 68.6052 50.5561 68.1843C49.9595 67.76 49.6098 67.1833 49.5071 66.4541L51.5902 66.3448C51.6532 66.653 51.8056 66.8883 52.0476 67.0507C52.2895 67.2098 52.5994 67.2894 52.9773 67.2894C53.3485 67.2894 53.6468 67.2181 53.8722 67.0756C54.1009 66.9298 54.2169 66.7425 54.2202 66.5138C54.2169 66.3216 54.1357 66.1641 53.9766 66.0415C53.8175 65.9156 53.5722 65.8194 53.2408 65.7532L51.9183 65.4897C51.1726 65.3405 50.6174 65.082 50.2528 64.7141C49.8916 64.3462 49.7109 63.8772 49.7109 63.3071C49.7109 62.8166 49.8435 62.394 50.1087 62.0394C50.3771 61.6847 50.7533 61.4113 51.2372 61.2191C51.7244 61.0268 52.2945 60.9307 52.9474 60.9307C53.9119 60.9307 54.6709 61.1345 55.2244 61.5422C55.7813 61.9499 56.1061 62.505 56.1989 63.2077ZM61.1568 68.8157C60.3746 68.8157 59.7018 68.6499 59.1383 68.3185C58.5782 67.9837 58.1473 67.5197 57.8457 66.9264C57.5474 66.3332 57.3983 65.6504 57.3983 64.8782C57.3983 64.096 57.5491 63.4099 57.8507 62.8199C58.1556 62.2266 58.5881 61.7643 59.1483 61.4328C59.7084 61.0981 60.3746 60.9307 61.1468 60.9307C61.813 60.9307 62.3964 61.0517 62.8968 61.2936C63.3973 61.5356 63.7934 61.8753 64.085 62.3128C64.3767 62.7503 64.5375 63.264 64.5673 63.854H62.5687C62.5124 63.4728 62.3632 63.1663 62.1213 62.9343C61.8826 62.6989 61.5694 62.5813 61.1816 62.5813C60.8535 62.5813 60.5668 62.6708 60.3216 62.8497C60.0796 63.0254 59.8907 63.2823 59.7548 63.6203C59.6189 63.9584 59.551 64.3677 59.551 64.8483C59.551 65.3355 59.6172 65.7498 59.7498 66.0912C59.8857 66.4326 60.0763 66.6928 60.3216 66.8718C60.5668 67.0507 60.8535 67.1402 61.1816 67.1402C61.4236 67.1402 61.6407 67.0905 61.8329 66.9911C62.0285 66.8916 62.1892 66.7475 62.3152 66.5585C62.4444 66.3663 62.5289 66.136 62.5687 65.8675H64.5673C64.5342 66.4508 64.3751 66.9646 64.09 67.4087C63.8083 67.8495 63.4189 68.1942 62.9217 68.4428C62.4245 68.6914 61.8362 68.8157 61.1568 68.8157ZM69.3736 68.8157C68.6013 68.8157 67.9335 68.6516 67.37 68.3235C66.8099 67.992 66.3774 67.5313 66.0724 66.9414C65.7675 66.3481 65.6151 65.6603 65.6151 64.8782C65.6151 64.0893 65.7675 63.3999 66.0724 62.81C66.3774 62.2167 66.8099 61.756 67.37 61.4279C67.9335 61.0964 68.6013 60.9307 69.3736 60.9307C70.1458 60.9307 70.812 61.0964 71.3722 61.4279C71.9356 61.756 72.3698 62.2167 72.6747 62.81C72.9796 63.3999 73.1321 64.0893 73.1321 64.8782C73.1321 65.6603 72.9796 66.3481 72.6747 66.9414C72.3698 67.5313 71.9356 67.992 71.3722 68.3235C70.812 68.6516 70.1458 68.8157 69.3736 68.8157ZM69.3835 67.175C69.7348 67.175 70.0282 67.0756 70.2635 66.8767C70.4988 66.6746 70.6761 66.3995 70.7955 66.0514C70.9181 65.7034 70.9794 65.3074 70.9794 64.8632C70.9794 64.4191 70.9181 64.023 70.7955 63.675C70.6761 63.327 70.4988 63.0519 70.2635 62.8497C70.0282 62.6476 69.7348 62.5465 69.3835 62.5465C69.0289 62.5465 68.7306 62.6476 68.4886 62.8497C68.25 63.0519 68.0694 63.327 67.9467 63.675C67.8274 64.023 67.7678 64.4191 67.7678 64.8632C67.7678 65.3074 67.8274 65.7034 67.9467 66.0514C68.0694 66.3995 68.25 66.6746 68.4886 66.8767C68.7306 67.0756 69.0289 67.175 69.3835 67.175ZM81.3825 61.0301L78.7127 68.6665H76.3263L73.6566 61.0301H75.8938L77.4798 66.4939H77.5593L79.1403 61.0301H81.3825ZM85.7003 68.8157C84.9148 68.8157 84.2386 68.6566 83.6719 68.3384C83.1084 68.0169 82.6742 67.5628 82.3693 66.9762C82.0644 66.3862 81.9119 65.6885 81.9119 64.8831C81.9119 64.0976 82.0644 63.4082 82.3693 62.8149C82.6742 62.2217 83.1035 61.7593 83.657 61.4279C84.2138 61.0964 84.8667 60.9307 85.6158 60.9307C86.1196 60.9307 86.5885 61.0119 87.0227 61.1743C87.4602 61.3334 87.8414 61.5737 88.1662 61.8952C88.4943 62.2167 88.7495 62.621 88.9318 63.1083C89.1141 63.5922 89.2053 64.1589 89.2053 64.8085V65.3902H82.7571V64.0777H87.2116C87.2116 63.7728 87.1454 63.5027 87.0128 63.2674C86.8802 63.032 86.6963 62.8481 86.4609 62.7155C86.2289 62.5796 85.9588 62.5117 85.6506 62.5117C85.3291 62.5117 85.044 62.5862 84.7955 62.7354C84.5502 62.8812 84.358 63.0784 84.2188 63.327C84.0795 63.5723 84.0083 63.8457 84.005 64.1473V65.3952C84.005 65.773 84.0746 66.0995 84.2138 66.3746C84.3563 66.6497 84.5568 66.8618 84.8153 67.011C85.0739 67.1601 85.3804 67.2347 85.7351 67.2347C85.9704 67.2347 86.1858 67.2015 86.3814 67.1353C86.5769 67.069 86.7443 66.9695 86.8835 66.837C87.0227 66.7044 87.1288 66.542 87.2017 66.3497L89.1605 66.479C89.0611 66.9496 88.8572 67.3606 88.549 67.712C88.2441 68.06 87.8497 68.3318 87.3658 68.5273C86.8852 68.7195 86.33 68.8157 85.7003 68.8157ZM90.5874 68.6665V61.0301H92.6406V62.3625H92.7202C92.8594 61.8886 93.093 61.5306 93.4212 61.2887C93.7493 61.0434 94.1271 60.9208 94.5547 60.9208C94.6607 60.9208 94.7751 60.9274 94.8977 60.9407C95.0204 60.9539 95.1281 60.9721 95.2209 60.9953V62.8746C95.1214 62.8448 94.9839 62.8183 94.8082 62.7951C94.6326 62.7719 94.4718 62.7603 94.326 62.7603C94.0144 62.7603 93.736 62.8282 93.4908 62.9641C93.2488 63.0967 93.0566 63.2823 92.9141 63.5209C92.7749 63.7595 92.7053 64.0346 92.7053 64.3462V68.6665H90.5874ZM97.8558 71.5301C97.5874 71.5301 97.3355 71.5086 97.1001 71.4655C96.8681 71.4257 96.6759 71.3744 96.5234 71.3114L97.0007 69.7304C97.2493 69.8067 97.473 69.8481 97.6719 69.8547C97.8741 69.8613 98.0481 69.8149 98.1939 69.7155C98.343 69.6161 98.464 69.447 98.5568 69.2084L98.6811 68.8853L95.9418 61.0301H98.169L99.75 66.6381H99.8295L101.425 61.0301H103.668L100.7 69.4918C100.557 69.9028 100.363 70.2607 100.118 70.5657C99.8759 70.8739 99.5694 71.1109 99.1982 71.2766C98.8269 71.4456 98.3795 71.5301 97.8558 71.5301Z" fill="white"/>
<path d="M51.3509 81.0301C51.3509 80.14 51.468 79.3209 51.7024 78.5728C51.9368 77.8246 52.2789 77.1345 52.7287 76.5024H53.7017C53.5265 76.7368 53.3632 77.0245 53.2116 77.3654C53.0601 77.7063 52.9276 78.0803 52.8139 78.4875C52.7003 78.8924 52.6115 79.3126 52.5476 79.7482C52.4837 80.1814 52.4517 80.6087 52.4517 81.0301C52.4517 81.5936 52.5073 82.1641 52.6186 82.7418C52.7299 83.3194 52.8802 83.8557 53.0696 84.3505C53.259 84.8452 53.4697 85.2489 53.7017 85.5614H52.7287C52.2789 84.9293 51.9368 84.2392 51.7024 83.4911C51.468 82.743 51.3509 81.9227 51.3509 81.0301ZM57.5662 77.3938V84.6665H56.4654V78.4946H56.4228L54.6827 79.631V78.5799L56.4973 77.3938H57.5662ZM63.3768 84.6665L61.7717 79.212H62.869L63.9379 83.2176H63.9911L65.0636 79.212H66.1609L67.2262 83.1999H67.2795L68.3413 79.212H69.4386L67.837 84.6665H66.7539L65.646 80.7283H65.5643L64.4563 84.6665H63.3768ZM72.631 84.7766C72.0936 84.7766 71.6308 84.6618 71.2425 84.4321C70.8567 84.2001 70.5584 83.8746 70.3477 83.4556C70.1393 83.0342 70.0352 82.5406 70.0352 81.9747C70.0352 81.416 70.1393 80.9236 70.3477 80.4975C70.5584 80.0713 70.8519 79.7387 71.2283 79.4996C71.6071 79.2605 72.0498 79.1409 72.5565 79.1409C72.8642 79.1409 73.1625 79.1918 73.4513 79.2936C73.7402 79.3954 73.9994 79.5552 74.229 79.773C74.4587 79.9908 74.6398 80.2737 74.7724 80.6218C74.9049 80.9674 74.9712 81.3876 74.9712 81.8824V82.2588H70.6353V81.4634H73.9308C73.9308 81.184 73.8739 80.9366 73.7603 80.7212C73.6467 80.5034 73.4869 80.3317 73.2809 80.2063C73.0773 80.0808 72.8382 80.0181 72.5636 80.0181C72.2653 80.0181 72.0049 80.0915 71.7823 80.2382C71.5621 80.3826 71.3917 80.572 71.271 80.8064C71.1526 81.0384 71.0934 81.2906 71.0934 81.5628V82.1843C71.0934 82.5488 71.1573 82.859 71.2852 83.1147C71.4154 83.3703 71.5965 83.5657 71.8285 83.7006C72.0605 83.8332 72.3316 83.8995 72.6417 83.8995C72.8429 83.8995 73.0264 83.871 73.1921 83.8142C73.3578 83.755 73.5011 83.6675 73.6218 83.5514C73.7425 83.4354 73.8349 83.2922 73.8988 83.1218L74.9038 83.3029C74.8233 83.5988 74.6789 83.858 74.4705 84.0806C74.2646 84.3007 74.0053 84.4724 73.6928 84.5955C73.3827 84.7162 73.0288 84.7766 72.631 84.7766ZM78.5002 84.7766C77.9628 84.7766 77.4999 84.6618 77.1117 84.4321C76.7258 84.2001 76.4275 83.8746 76.2168 83.4556C76.0085 83.0342 75.9043 82.5406 75.9043 81.9747C75.9043 81.416 76.0085 80.9236 76.2168 80.4975C76.4275 80.0713 76.7211 79.7387 77.0975 79.4996C77.4763 79.2605 77.919 79.1409 78.4256 79.1409C78.7334 79.1409 79.0317 79.1918 79.3205 79.2936C79.6093 79.3954 79.8685 79.5552 80.0982 79.773C80.3278 79.9908 80.5089 80.2737 80.6415 80.6218C80.7741 80.9674 80.8404 81.3876 80.8404 81.8824V82.2588H76.5044V81.4634H79.7999C79.7999 81.184 79.7431 80.9366 79.6294 80.7212C79.5158 80.5034 79.356 80.3317 79.15 80.2063C78.9464 80.0808 78.7073 80.0181 78.4327 80.0181C78.1344 80.0181 77.874 80.0915 77.6515 80.2382C77.4313 80.3826 77.2608 80.572 77.1401 80.8064C77.0217 81.0384 76.9625 81.2906 76.9625 81.5628V82.1843C76.9625 82.5488 77.0265 82.859 77.1543 83.1147C77.2845 83.3703 77.4656 83.5657 77.6976 83.7006C77.9296 83.8332 78.2007 83.8995 78.5108 83.8995C78.7121 83.8995 78.8955 83.871 79.0613 83.8142C79.227 83.755 79.3702 83.6675 79.4909 83.5514C79.6117 83.4354 79.704 83.2922 79.7679 83.1218L80.7729 83.3029C80.6924 83.5988 80.548 83.858 80.3397 84.0806C80.1337 84.3007 79.8745 84.4724 79.562 84.5955C79.2518 84.7162 78.8979 84.7766 78.5002 84.7766ZM82.995 82.8164L82.9879 81.5202H83.1726L85.3459 79.212H86.6172L84.1385 81.8398H83.9716L82.995 82.8164ZM82.0185 84.6665V77.3938H83.0803V84.6665H82.0185ZM85.4631 84.6665L83.5099 82.0742L84.2415 81.332L86.7663 84.6665H85.4631ZM89.6268 81.648C89.6268 82.5406 89.5096 83.3609 89.2752 84.109C89.0408 84.8571 88.6987 85.5472 88.2489 86.1793H87.2759C87.4511 85.9449 87.6145 85.6573 87.766 85.3164C87.9175 84.9755 88.0501 84.6026 88.1637 84.1978C88.2773 83.7906 88.3661 83.3692 88.43 82.9335C88.494 82.4979 88.5259 82.0694 88.5259 81.648C88.5259 81.087 88.4703 80.5176 88.359 79.9399C88.2478 79.3623 88.0974 78.8261 87.908 78.3313C87.7186 77.8365 87.5079 77.4328 87.2759 77.1203H88.2489C88.6987 77.7524 89.0408 78.4425 89.2752 79.1907C89.5096 79.9388 89.6268 80.7579 89.6268 81.648Z" fill="white" fill-opacity="0.6"/>
<path d="M150.66 48C150.66 43.5817 154.242 40 158.66 40H516C520.419 40 524 43.5817 524 48V93.3333C524 97.7516 520.419 101.333 516 101.333H158.66C154.242 101.333 150.66 97.7516 150.66 93.3333V48Z" fill="white" fill-opacity="0.3"/>
<path d="M8 117.333C8 112.915 11.5817 109.333 16 109.333H119.66C124.078 109.333 127.66 112.915 127.66 117.333V162.667C127.66 167.085 124.078 170.667 119.66 170.667H16C11.5817 170.667 8 167.085 8 162.667V117.333Z" fill="white" fill-opacity="0.3"/>
<rect x="137.66" y="109.333" width="256.68" height="61.3333" rx="8" fill="white"/>
<rect x="138.16" y="109.833" width="255.68" height="60.3333" rx="7.5" stroke="#181A1D" stroke-opacity="0.1" stroke-dasharray="3 3"/>
<path d="M137.66 117.333C137.66 112.915 141.242 109.333 145.66 109.333H306.341C310.759 109.333 314.341 112.915 314.341 117.333V162.667C314.341 167.085 310.759 170.667 306.341 170.667H145.66C141.242 170.667 137.66 167.085 137.66 162.667V117.333Z" fill="#181A1D"/>
<path d="M206.494 138H202.885V127.818H206.524C207.548 127.818 208.43 128.022 209.169 128.43C209.908 128.834 210.477 129.416 210.874 130.175C211.275 130.934 211.476 131.842 211.476 132.899C211.476 133.96 211.275 134.871 210.874 135.634C210.477 136.396 209.905 136.981 209.159 137.388C208.417 137.796 207.528 138 206.494 138ZM205.038 136.156H206.405C207.041 136.156 207.576 136.043 208.011 135.817C208.448 135.589 208.776 135.236 208.995 134.759C209.217 134.278 209.328 133.658 209.328 132.899C209.328 132.147 209.217 131.532 208.995 131.055C208.776 130.577 208.45 130.226 208.016 130.001C207.581 129.775 207.046 129.663 206.41 129.663H205.038V136.156ZM216.511 138.149C215.725 138.149 215.049 137.99 214.482 137.672C213.919 137.35 213.485 136.896 213.18 136.31C212.875 135.72 212.722 135.022 212.722 134.217C212.722 133.431 212.875 132.742 213.18 132.148C213.485 131.555 213.914 131.093 214.468 130.761C215.024 130.43 215.677 130.264 216.426 130.264C216.93 130.264 217.399 130.345 217.833 130.508C218.271 130.667 218.652 130.907 218.977 131.229C219.305 131.55 219.56 131.955 219.742 132.442C219.925 132.926 220.016 133.492 220.016 134.142V134.724H213.568V133.411H218.022C218.022 133.106 217.956 132.836 217.823 132.601C217.691 132.366 217.507 132.182 217.271 132.049C217.039 131.913 216.769 131.845 216.461 131.845C216.14 131.845 215.855 131.92 215.606 132.069C215.361 132.215 215.169 132.412 215.029 132.661C214.89 132.906 214.819 133.179 214.816 133.481V134.729C214.816 135.107 214.885 135.433 215.024 135.708C215.167 135.983 215.367 136.195 215.626 136.344C215.884 136.494 216.191 136.568 216.546 136.568C216.781 136.568 216.996 136.535 217.192 136.469C217.387 136.402 217.555 136.303 217.694 136.17C217.833 136.038 217.939 135.875 218.012 135.683L219.971 135.812C219.872 136.283 219.668 136.694 219.36 137.045C219.055 137.393 218.66 137.665 218.176 137.861C217.696 138.053 217.141 138.149 216.511 138.149ZM227.752 132.541L225.813 132.661C225.78 132.495 225.708 132.346 225.599 132.213C225.49 132.077 225.345 131.969 225.166 131.89C224.991 131.807 224.78 131.766 224.535 131.766C224.207 131.766 223.93 131.835 223.705 131.974C223.479 132.11 223.367 132.293 223.367 132.521C223.367 132.704 223.44 132.858 223.585 132.984C223.731 133.11 223.981 133.211 224.336 133.287L225.718 133.565C226.461 133.718 227.014 133.963 227.379 134.301C227.743 134.639 227.926 135.083 227.926 135.634C227.926 136.134 227.778 136.573 227.483 136.951C227.191 137.329 226.79 137.624 226.28 137.836C225.773 138.045 225.188 138.149 224.525 138.149C223.514 138.149 222.709 137.939 222.109 137.518C221.512 137.094 221.163 136.517 221.06 135.788L223.143 135.678C223.206 135.987 223.358 136.222 223.6 136.384C223.842 136.543 224.152 136.623 224.53 136.623C224.901 136.623 225.2 136.552 225.425 136.409C225.654 136.263 225.77 136.076 225.773 135.847C225.77 135.655 225.688 135.498 225.529 135.375C225.37 135.249 225.125 135.153 224.794 135.087L223.471 134.823C222.725 134.674 222.17 134.415 221.806 134.048C221.444 133.68 221.264 133.211 221.264 132.641C221.264 132.15 221.396 131.728 221.661 131.373C221.93 131.018 222.306 130.745 222.79 130.553C223.277 130.36 223.847 130.264 224.5 130.264C225.465 130.264 226.224 130.468 226.777 130.876C227.334 131.283 227.659 131.839 227.752 132.541ZM229.259 138V130.364H231.377V138H229.259ZM230.323 129.379C230.008 129.379 229.738 129.275 229.513 129.066C229.291 128.854 229.18 128.6 229.18 128.305C229.18 128.014 229.291 127.763 229.513 127.555C229.738 127.343 230.008 127.237 230.323 127.237C230.638 127.237 230.906 127.343 231.129 127.555C231.354 127.763 231.467 128.014 231.467 128.305C231.467 128.6 231.354 128.854 231.129 129.066C230.906 129.275 230.638 129.379 230.323 129.379ZM236.514 141.023C235.828 141.023 235.24 140.928 234.749 140.739C234.262 140.554 233.874 140.3 233.586 139.979C233.297 139.657 233.11 139.296 233.024 138.895L234.983 138.631C235.042 138.784 235.137 138.926 235.266 139.059C235.395 139.192 235.566 139.298 235.778 139.377C235.994 139.46 236.256 139.501 236.564 139.501C237.024 139.501 237.404 139.389 237.702 139.163C238.004 138.941 238.155 138.568 238.155 138.045V136.648H238.065C237.972 136.86 237.833 137.06 237.648 137.249C237.462 137.438 237.223 137.592 236.932 137.712C236.64 137.831 236.292 137.891 235.888 137.891C235.314 137.891 234.792 137.758 234.322 137.493C233.854 137.224 233.481 136.815 233.203 136.265C232.928 135.711 232.79 135.012 232.79 134.167C232.79 133.302 232.931 132.579 233.213 131.999C233.495 131.419 233.869 130.985 234.336 130.697C234.807 130.408 235.323 130.264 235.883 130.264C236.31 130.264 236.668 130.337 236.956 130.483C237.245 130.625 237.477 130.804 237.653 131.02C237.831 131.232 237.969 131.441 238.065 131.646H238.145V130.364H240.248V138.075C240.248 138.724 240.089 139.268 239.77 139.705C239.452 140.143 239.011 140.471 238.448 140.69C237.888 140.912 237.243 141.023 236.514 141.023ZM236.559 136.3C236.9 136.3 237.189 136.215 237.424 136.046C237.662 135.874 237.845 135.629 237.971 135.31C238.1 134.989 238.165 134.604 238.165 134.157C238.165 133.71 238.102 133.322 237.976 132.994C237.85 132.662 237.667 132.405 237.429 132.223C237.19 132.041 236.9 131.95 236.559 131.95C236.211 131.95 235.917 132.044 235.679 132.233C235.44 132.419 235.26 132.677 235.137 133.009C235.014 133.34 234.953 133.723 234.953 134.157C234.953 134.598 235.014 134.979 235.137 135.3C235.263 135.619 235.443 135.866 235.679 136.041C235.917 136.214 236.211 136.3 236.559 136.3ZM244.051 133.585V138H241.933V130.364H243.952V131.711H244.041C244.21 131.267 244.493 130.915 244.891 130.657C245.289 130.395 245.771 130.264 246.338 130.264C246.868 130.264 247.331 130.38 247.725 130.612C248.119 130.844 248.426 131.176 248.645 131.607C248.863 132.034 248.973 132.545 248.973 133.138V138H246.855V133.516C246.858 133.048 246.739 132.684 246.497 132.422C246.255 132.157 245.922 132.024 245.498 132.024C245.213 132.024 244.961 132.085 244.742 132.208C244.527 132.331 244.358 132.51 244.235 132.745C244.116 132.977 244.054 133.257 244.051 133.585Z" fill="white"/>
<path d="M203.023 150.364C203.023 149.473 203.14 148.654 203.374 147.906C203.609 147.158 203.951 146.468 204.401 145.836H205.374C205.198 146.07 205.035 146.358 204.884 146.699C204.732 147.04 204.599 147.414 204.486 147.821C204.372 148.226 204.283 148.646 204.219 149.082C204.156 149.515 204.124 149.942 204.124 150.364C204.124 150.927 204.179 151.498 204.29 152.075C204.402 152.653 204.552 153.189 204.741 153.684C204.931 154.179 205.142 154.582 205.374 154.895H204.401C203.951 154.263 203.609 153.573 203.374 152.825C203.14 152.076 203.023 151.256 203.023 150.364ZM206.479 154V153.205L208.94 150.655C209.203 150.378 209.419 150.135 209.59 149.927C209.762 149.716 209.892 149.516 209.977 149.327C210.062 149.137 210.105 148.936 210.105 148.723C210.105 148.482 210.048 148.273 209.934 148.098C209.82 147.92 209.665 147.784 209.469 147.69C209.272 147.593 209.051 147.544 208.805 147.544C208.544 147.544 208.317 147.597 208.123 147.704C207.929 147.81 207.78 147.961 207.676 148.155C207.571 148.349 207.519 148.576 207.519 148.837H206.472C206.472 148.394 206.574 148.007 206.777 147.675C206.981 147.344 207.26 147.087 207.615 146.905C207.97 146.72 208.374 146.628 208.826 146.628C209.283 146.628 209.686 146.719 210.034 146.901C210.384 147.081 210.657 147.327 210.854 147.64C211.05 147.95 211.149 148.3 211.149 148.691C211.149 148.961 211.098 149.225 210.996 149.483C210.896 149.741 210.722 150.029 210.474 150.346C210.225 150.661 209.88 151.043 209.437 151.493L207.992 153.006V153.059H211.266V154H206.479ZM216.455 154L214.85 148.545H215.947L217.016 152.551H217.069L218.142 148.545H219.239L220.304 152.533H220.358L221.419 148.545H222.517L220.915 154H219.832L218.724 150.062H218.642L217.534 154H216.455ZM225.709 154.11C225.172 154.11 224.709 153.995 224.321 153.766C223.935 153.534 223.636 153.208 223.426 152.789C223.217 152.368 223.113 151.874 223.113 151.308C223.113 150.75 223.217 150.257 223.426 149.831C223.636 149.405 223.93 149.072 224.306 148.833C224.685 148.594 225.128 148.474 225.635 148.474C225.942 148.474 226.241 148.525 226.529 148.627C226.818 148.729 227.078 148.889 227.307 149.107C227.537 149.324 227.718 149.607 227.85 149.955C227.983 150.301 228.049 150.721 228.049 151.216V151.592H223.713V150.797H227.009C227.009 150.518 226.952 150.27 226.838 150.055C226.725 149.837 226.565 149.665 226.359 149.54C226.155 149.414 225.916 149.352 225.642 149.352C225.343 149.352 225.083 149.425 224.86 149.572C224.64 149.716 224.47 149.906 224.349 150.14C224.231 150.372 224.172 150.624 224.172 150.896V151.518C224.172 151.882 224.235 152.192 224.363 152.448C224.493 152.704 224.675 152.899 224.907 153.034C225.139 153.167 225.41 153.233 225.72 153.233C225.921 153.233 226.105 153.205 226.27 153.148C226.436 153.089 226.579 153.001 226.7 152.885C226.821 152.769 226.913 152.626 226.977 152.455L227.982 152.636C227.901 152.932 227.757 153.192 227.549 153.414C227.343 153.634 227.083 153.806 226.771 153.929C226.461 154.05 226.107 154.11 225.709 154.11ZM231.578 154.11C231.041 154.11 230.578 153.995 230.19 153.766C229.804 153.534 229.506 153.208 229.295 152.789C229.087 152.368 228.982 151.874 228.982 151.308C228.982 150.75 229.087 150.257 229.295 149.831C229.506 149.405 229.799 149.072 230.176 148.833C230.554 148.594 230.997 148.474 231.504 148.474C231.811 148.474 232.11 148.525 232.399 148.627C232.687 148.729 232.947 148.889 233.176 149.107C233.406 149.324 233.587 149.607 233.72 149.955C233.852 150.301 233.919 150.721 233.919 151.216V151.592H229.583V150.797H232.878C232.878 150.518 232.821 150.27 232.708 150.055C232.594 149.837 232.434 149.665 232.228 149.54C232.025 149.414 231.785 149.352 231.511 149.352C231.213 149.352 230.952 149.425 230.73 149.572C230.509 149.716 230.339 149.906 230.218 150.14C230.1 150.372 230.041 150.624 230.041 150.896V151.518C230.041 151.882 230.105 152.192 230.232 152.448C230.363 152.704 230.544 152.899 230.776 153.034C231.008 153.167 231.279 153.233 231.589 153.233C231.79 153.233 231.974 153.205 232.139 153.148C232.305 153.089 232.448 153.001 232.569 152.885C232.69 152.769 232.782 152.626 232.846 152.455L233.851 152.636C233.771 152.932 233.626 153.192 233.418 153.414C233.212 153.634 232.953 153.806 232.64 153.929C232.33 154.05 231.976 154.11 231.578 154.11ZM236.073 152.15L236.066 150.854H236.251L238.424 148.545H239.695L237.217 151.173H237.05L236.073 152.15ZM235.097 154V146.727H236.158V154H235.097ZM238.541 154L236.588 151.408L237.32 150.665L239.844 154H238.541ZM244.75 149.877L243.788 150.048C243.748 149.924 243.684 149.807 243.596 149.696C243.511 149.585 243.395 149.494 243.248 149.423C243.101 149.352 242.918 149.316 242.698 149.316C242.397 149.316 242.146 149.384 241.945 149.518C241.744 149.651 241.643 149.823 241.643 150.033C241.643 150.216 241.711 150.362 241.846 150.474C241.98 150.585 242.198 150.676 242.499 150.747L243.365 150.946C243.867 151.062 244.241 151.241 244.488 151.482C244.734 151.724 244.857 152.037 244.857 152.423C244.857 152.75 244.762 153.041 244.573 153.297C244.386 153.55 244.124 153.749 243.788 153.893C243.454 154.038 243.067 154.11 242.627 154.11C242.016 154.11 241.518 153.98 241.132 153.719C240.746 153.457 240.509 153.084 240.422 152.601L241.448 152.445C241.512 152.712 241.643 152.915 241.842 153.052C242.041 153.187 242.3 153.254 242.62 153.254C242.968 153.254 243.246 153.182 243.454 153.038C243.663 152.891 243.767 152.712 243.767 152.501C243.767 152.331 243.703 152.188 243.575 152.072C243.449 151.956 243.257 151.868 242.996 151.809L242.073 151.607C241.564 151.491 241.187 151.306 240.944 151.053C240.702 150.799 240.581 150.478 240.581 150.09C240.581 149.768 240.671 149.487 240.851 149.245C241.031 149.004 241.28 148.815 241.597 148.68C241.914 148.543 242.278 148.474 242.687 148.474C243.277 148.474 243.741 148.602 244.079 148.858C244.418 149.111 244.641 149.451 244.75 149.877ZM248.066 150.982C248.066 151.874 247.949 152.694 247.715 153.442C247.48 154.191 247.138 154.881 246.688 155.513H245.715C245.891 155.278 246.054 154.991 246.205 154.65C246.357 154.309 246.49 153.936 246.603 153.531C246.717 153.124 246.806 152.703 246.869 152.267C246.933 151.831 246.965 151.403 246.965 150.982C246.965 150.42 246.91 149.851 246.798 149.273C246.687 148.696 246.537 148.16 246.347 147.665C246.158 147.17 245.947 146.766 245.715 146.454H246.688C247.138 147.086 247.48 147.776 247.715 148.524C247.949 149.272 248.066 150.091 248.066 150.982Z" fill="white" fill-opacity="0.6"/>
<path d="M404.34 117.333C404.34 112.915 407.922 109.333 412.34 109.333H516C520.418 109.333 524 112.915 524 117.333V162.667C524 167.085 520.418 170.667 516 170.667H412.34C407.922 170.667 404.34 167.085 404.34 162.667V117.333Z" fill="white" fill-opacity="0.3"/>
<path d="M8 186.666C8 182.248 11.5817 178.667 16 178.667H331C335.418 178.667 339 182.248 339 186.667V232C339 236.418 335.418 240 331 240H16C11.5817 240 8 236.418 8 232V186.666Z" fill="white" fill-opacity="0.3"/>
<path d="M349 186.666C349 182.248 352.582 178.667 357 178.667H531V240H357C352.582 240 349 236.418 349 232V186.666Z" fill="white"/>
<path d="M398.494 207.333H394.885V197.151H398.524C399.548 197.151 400.43 197.355 401.169 197.763C401.908 198.167 402.477 198.749 402.874 199.508C403.275 200.267 403.476 201.175 403.476 202.232C403.476 203.293 403.275 204.204 402.874 204.967C402.477 205.729 401.905 206.314 401.159 206.722C400.417 207.129 399.528 207.333 398.494 207.333ZM397.038 205.489H398.405C399.041 205.489 399.576 205.376 400.011 205.15C400.448 204.922 400.776 204.569 400.995 204.092C401.217 203.611 401.328 202.991 401.328 202.232C401.328 201.48 401.217 200.865 400.995 200.388C400.776 199.91 400.45 199.559 400.016 199.334C399.581 199.108 399.046 198.996 398.41 198.996H397.038V205.489ZM408.511 207.482C407.725 207.482 407.049 207.323 406.482 207.005C405.919 206.683 405.485 206.229 405.18 205.643C404.875 205.053 404.722 204.355 404.722 203.55C404.722 202.764 404.875 202.075 405.18 201.481C405.485 200.888 405.914 200.426 406.468 200.094C407.024 199.763 407.677 199.597 408.426 199.597C408.93 199.597 409.399 199.678 409.833 199.841C410.271 200 410.652 200.24 410.977 200.562C411.305 200.883 411.56 201.288 411.742 201.775C411.925 202.259 412.016 202.825 412.016 203.475V204.057H405.568V202.744H410.022C410.022 202.439 409.956 202.169 409.823 201.934C409.691 201.699 409.507 201.515 409.271 201.382C409.039 201.246 408.769 201.178 408.461 201.178C408.14 201.178 407.855 201.253 407.606 201.402C407.361 201.548 407.169 201.745 407.029 201.994C406.89 202.239 406.819 202.512 406.816 202.814V204.062C406.816 204.44 406.885 204.766 407.024 205.041C407.167 205.316 407.367 205.528 407.626 205.677C407.884 205.827 408.191 205.901 408.546 205.901C408.781 205.901 408.996 205.868 409.192 205.802C409.387 205.735 409.555 205.636 409.694 205.503C409.833 205.371 409.939 205.208 410.012 205.016L411.971 205.146C411.872 205.616 411.668 206.027 411.36 206.378C411.055 206.726 410.66 206.998 410.176 207.194C409.696 207.386 409.141 207.482 408.511 207.482ZM420.312 199.697L417.642 207.333H415.256L412.586 199.697H414.824L416.409 205.16H416.489L418.07 199.697H420.312ZM424.63 207.482C423.844 207.482 423.168 207.323 422.602 207.005C422.038 206.683 421.604 206.229 421.299 205.643C420.994 205.053 420.842 204.355 420.842 203.55C420.842 202.764 420.994 202.075 421.299 201.481C421.604 200.888 422.033 200.426 422.587 200.094C423.143 199.763 423.796 199.597 424.545 199.597C425.049 199.597 425.518 199.678 425.952 199.841C426.39 200 426.771 200.24 427.096 200.562C427.424 200.883 427.679 201.288 427.862 201.775C428.044 202.259 428.135 202.825 428.135 203.475V204.057H421.687V202.744H426.141C426.141 202.439 426.075 202.169 425.942 201.934C425.81 201.699 425.626 201.515 425.391 201.382C425.159 201.246 424.888 201.178 424.58 201.178C424.259 201.178 423.974 201.253 423.725 201.402C423.48 201.548 423.288 201.745 423.148 201.994C423.009 202.239 422.938 202.512 422.935 202.814V204.062C422.935 204.44 423.004 204.766 423.143 205.041C423.286 205.316 423.487 205.528 423.745 205.677C424.004 205.827 424.31 205.901 424.665 205.901C424.9 205.901 425.116 205.868 425.311 205.802C425.507 205.735 425.674 205.636 425.813 205.503C425.952 205.371 426.058 205.208 426.131 205.016L428.09 205.146C427.991 205.616 427.787 206.027 427.479 206.378C427.174 206.726 426.779 206.998 426.295 207.194C425.815 207.386 425.26 207.482 424.63 207.482ZM431.635 197.151V207.333H429.517V197.151H431.635ZM436.782 207.482C436.01 207.482 435.342 207.318 434.778 206.99C434.218 206.659 433.786 206.198 433.481 205.608C433.176 205.015 433.023 204.327 433.023 203.545C433.023 202.756 433.176 202.066 433.481 201.476C433.786 200.883 434.218 200.422 434.778 200.094C435.342 199.763 436.01 199.597 436.782 199.597C437.554 199.597 438.22 199.763 438.78 200.094C439.344 200.422 439.778 200.883 440.083 201.476C440.388 202.066 440.54 202.756 440.54 203.545C440.54 204.327 440.388 205.015 440.083 205.608C439.778 206.198 439.344 206.659 438.78 206.99C438.22 207.318 437.554 207.482 436.782 207.482ZM436.792 205.842C437.143 205.842 437.436 205.742 437.672 205.543C437.907 205.341 438.084 205.066 438.204 204.718C438.326 204.37 438.388 203.974 438.388 203.53C438.388 203.086 438.326 202.69 438.204 202.342C438.084 201.994 437.907 201.718 437.672 201.516C437.436 201.314 437.143 201.213 436.792 201.213C436.437 201.213 436.139 201.314 435.897 201.516C435.658 201.718 435.478 201.994 435.355 202.342C435.236 202.69 435.176 203.086 435.176 203.53C435.176 203.974 435.236 204.37 435.355 204.718C435.478 205.066 435.658 205.341 435.897 205.543C436.139 205.742 436.437 205.842 436.792 205.842ZM441.917 210.197V199.697H444.006V200.979H444.1C444.193 200.774 444.327 200.565 444.503 200.353C444.682 200.137 444.914 199.958 445.199 199.816C445.487 199.67 445.845 199.597 446.273 199.597C446.829 199.597 447.343 199.743 447.814 200.035C448.284 200.323 448.661 200.759 448.942 201.342C449.224 201.922 449.365 202.65 449.365 203.525C449.365 204.377 449.227 205.096 448.952 205.682C448.68 206.266 448.309 206.708 447.839 207.01C447.371 207.308 446.848 207.457 446.268 207.457C445.857 207.457 445.507 207.389 445.219 207.253C444.934 207.118 444.7 206.947 444.518 206.741C444.335 206.533 444.196 206.322 444.1 206.11H444.035V210.197H441.917ZM443.991 203.515C443.991 203.969 444.054 204.365 444.18 204.703C444.305 205.041 444.488 205.305 444.726 205.494C444.965 205.679 445.255 205.772 445.596 205.772C445.941 205.772 446.233 205.677 446.471 205.489C446.71 205.296 446.891 205.031 447.013 204.693C447.139 204.352 447.202 203.959 447.202 203.515C447.202 203.074 447.141 202.686 447.018 202.351C446.896 202.017 446.715 201.755 446.476 201.566C446.238 201.377 445.944 201.283 445.596 201.283C445.252 201.283 444.96 201.374 444.721 201.556C444.486 201.738 444.305 201.997 444.18 202.332C444.054 202.666 443.991 203.061 443.991 203.515ZM450.777 207.333V199.697H452.795V201.044H452.885C453.044 200.597 453.309 200.244 453.68 199.985C454.051 199.726 454.496 199.597 455.013 199.597C455.536 199.597 455.982 199.728 456.35 199.99C456.718 200.248 456.963 200.6 457.086 201.044H457.165C457.321 200.606 457.603 200.257 458.01 199.995C458.421 199.73 458.907 199.597 459.467 199.597C460.18 199.597 460.758 199.824 461.202 200.278C461.65 200.729 461.873 201.369 461.873 202.197V207.333H459.76V202.615C459.76 202.191 459.648 201.873 459.422 201.66C459.197 201.448 458.915 201.342 458.577 201.342C458.193 201.342 457.893 201.465 457.677 201.71C457.462 201.952 457.354 202.272 457.354 202.67V207.333H455.301V202.57C455.301 202.196 455.193 201.897 454.978 201.675C454.766 201.453 454.486 201.342 454.138 201.342C453.902 201.342 453.69 201.402 453.501 201.521C453.316 201.637 453.168 201.801 453.059 202.013C452.949 202.222 452.895 202.467 452.895 202.749V207.333H450.777ZM467.026 207.482C466.241 207.482 465.565 207.323 464.998 207.005C464.435 206.683 464 206.229 463.695 205.643C463.391 205.053 463.238 204.355 463.238 203.55C463.238 202.764 463.391 202.075 463.695 201.481C464 200.888 464.43 200.426 464.983 200.094C465.54 199.763 466.193 199.597 466.942 199.597C467.446 199.597 467.915 199.678 468.349 199.841C468.786 200 469.168 200.24 469.492 200.562C469.82 200.883 470.076 201.288 470.258 201.775C470.44 202.259 470.531 202.825 470.531 203.475V204.057H464.083V202.744H468.538C468.538 202.439 468.472 202.169 468.339 201.934C468.206 201.699 468.022 201.515 467.787 201.382C467.555 201.246 467.285 201.178 466.977 201.178C466.655 201.178 466.37 201.253 466.122 201.402C465.876 201.548 465.684 201.745 465.545 201.994C465.406 202.239 465.334 202.512 465.331 202.814V204.062C465.331 204.44 465.401 204.766 465.54 205.041C465.682 205.316 465.883 205.528 466.142 205.677C466.4 205.827 466.707 205.901 467.061 205.901C467.297 205.901 467.512 205.868 467.708 205.802C467.903 205.735 468.07 205.636 468.21 205.503C468.349 205.371 468.455 205.208 468.528 205.016L470.487 205.146C470.387 205.616 470.183 206.027 469.875 206.378C469.57 206.726 469.176 206.998 468.692 207.194C468.211 207.386 467.656 207.482 467.026 207.482ZM474.031 202.918V207.333H471.914V199.697H473.932V201.044H474.021C474.191 200.6 474.474 200.248 474.872 199.99C475.269 199.728 475.752 199.597 476.318 199.597C476.849 199.597 477.311 199.713 477.705 199.945C478.1 200.177 478.406 200.509 478.625 200.94C478.844 201.367 478.953 201.878 478.953 202.471V207.333H476.835V202.849C476.839 202.381 476.719 202.017 476.477 201.755C476.235 201.49 475.902 201.357 475.478 201.357C475.193 201.357 474.941 201.418 474.722 201.541C474.507 201.664 474.338 201.843 474.215 202.078C474.096 202.31 474.035 202.59 474.031 202.918ZM484.684 199.697V201.288H480.086V199.697H484.684ZM481.13 197.867H483.248V204.986C483.248 205.182 483.277 205.334 483.337 205.444C483.397 205.55 483.48 205.624 483.586 205.668C483.695 205.711 483.821 205.732 483.963 205.732C484.063 205.732 484.162 205.724 484.262 205.707C484.361 205.687 484.437 205.672 484.49 205.663L484.824 207.239C484.717 207.272 484.568 207.31 484.376 207.353C484.184 207.399 483.95 207.427 483.675 207.437C483.165 207.457 482.717 207.389 482.333 207.234C481.952 207.078 481.655 206.836 481.443 206.508C481.231 206.18 481.126 205.765 481.13 205.265V197.867Z" fill="#181A1D"/>
<path d="M412.523 219.697C412.523 218.806 412.64 217.987 412.874 217.239C413.109 216.491 413.451 215.801 413.901 215.169H414.874C414.698 215.403 414.535 215.691 414.384 216.032C414.232 216.373 414.099 216.747 413.986 217.154C413.872 217.559 413.783 217.979 413.719 218.415C413.656 218.848 413.624 219.275 413.624 219.697C413.624 220.26 413.679 220.831 413.79 221.408C413.902 221.986 414.052 222.522 414.241 223.017C414.431 223.512 414.642 223.915 414.874 224.228H413.901C413.451 223.596 413.109 222.906 412.874 222.158C412.64 221.409 412.523 220.589 412.523 219.697ZM418.738 216.06V223.333H417.637V217.161H417.595L415.855 218.297V217.246L417.669 216.06H418.738ZM423.933 219.235V220.158H420.709V219.235H423.933ZM425.041 223.333V222.538L427.502 219.988C427.765 219.711 427.982 219.468 428.152 219.26C428.325 219.049 428.454 218.849 428.539 218.66C428.624 218.47 428.667 218.269 428.667 218.056C428.667 217.815 428.61 217.606 428.497 217.431C428.383 217.253 428.228 217.117 428.031 217.023C427.835 216.926 427.614 216.877 427.367 216.877C427.107 216.877 426.88 216.93 426.686 217.037C426.491 217.143 426.342 217.294 426.238 217.488C426.134 217.682 426.082 217.909 426.082 218.17H425.034C425.034 217.727 425.136 217.34 425.34 217.008C425.543 216.677 425.823 216.42 426.178 216.238C426.533 216.053 426.936 215.961 427.389 215.961C427.846 215.961 428.248 216.052 428.596 216.234C428.946 216.414 429.22 216.66 429.416 216.973C429.613 217.283 429.711 217.633 429.711 218.024C429.711 218.294 429.66 218.558 429.558 218.816C429.459 219.074 429.285 219.362 429.036 219.679C428.788 219.994 428.442 220.376 427.999 220.826L426.554 222.339V222.392H429.828V223.333H425.041ZM435.017 223.333L433.412 217.878H434.51L435.578 221.884H435.632L436.704 217.878H437.801L438.867 221.866H438.92L439.982 217.878H441.079L439.478 223.333H438.395L437.287 219.395H437.205L436.097 223.333H435.017ZM444.272 223.443C443.734 223.443 443.271 223.328 442.883 223.099C442.497 222.867 442.199 222.541 441.988 222.122C441.78 221.701 441.676 221.207 441.676 220.641C441.676 220.083 441.78 219.59 441.988 219.164C442.199 218.738 442.493 218.405 442.869 218.166C443.248 217.927 443.69 217.807 444.197 217.807C444.505 217.807 444.803 217.858 445.092 217.96C445.381 218.062 445.64 218.222 445.87 218.44C446.099 218.657 446.28 218.94 446.413 219.288C446.546 219.634 446.612 220.054 446.612 220.549V220.925H442.276V220.13H445.571C445.571 219.851 445.515 219.603 445.401 219.388C445.287 219.17 445.127 218.998 444.922 218.873C444.718 218.747 444.479 218.685 444.204 218.685C443.906 218.685 443.645 218.758 443.423 218.905C443.203 219.049 443.032 219.239 442.912 219.473C442.793 219.705 442.734 219.957 442.734 220.229V220.851C442.734 221.215 442.798 221.525 442.926 221.781C443.056 222.037 443.237 222.232 443.469 222.367C443.701 222.5 443.972 222.566 444.282 222.566C444.484 222.566 444.667 222.538 444.833 222.481C444.998 222.422 445.142 222.334 445.262 222.218C445.383 222.102 445.475 221.959 445.539 221.788L446.544 221.969C446.464 222.265 446.319 222.525 446.111 222.747C445.905 222.967 445.646 223.139 445.333 223.262C445.023 223.383 444.669 223.443 444.272 223.443ZM450.141 223.443C449.603 223.443 449.141 223.328 448.752 223.099C448.366 222.867 448.068 222.541 447.857 222.122C447.649 221.701 447.545 221.207 447.545 220.641C447.545 220.083 447.649 219.59 447.857 219.164C448.068 218.738 448.362 218.405 448.738 218.166C449.117 217.927 449.56 217.807 450.066 217.807C450.374 217.807 450.672 217.858 450.961 217.96C451.25 218.062 451.509 218.222 451.739 218.44C451.968 218.657 452.15 218.94 452.282 219.288C452.415 219.634 452.481 220.054 452.481 220.549V220.925H448.145V220.13H451.441C451.441 219.851 451.384 219.603 451.27 219.388C451.156 219.17 450.997 218.998 450.791 218.873C450.587 218.747 450.348 218.685 450.073 218.685C449.775 218.685 449.515 218.758 449.292 218.905C449.072 219.049 448.901 219.239 448.781 219.473C448.662 219.705 448.603 219.957 448.603 220.229V220.851C448.603 221.215 448.667 221.525 448.795 221.781C448.925 222.037 449.106 222.232 449.338 222.367C449.57 222.5 449.841 222.566 450.151 222.566C450.353 222.566 450.536 222.538 450.702 222.481C450.868 222.422 451.011 222.334 451.132 222.218C451.252 222.102 451.345 221.959 451.409 221.788L452.414 221.969C452.333 222.265 452.189 222.525 451.98 222.747C451.774 222.967 451.515 223.139 451.203 223.262C450.892 223.383 450.539 223.443 450.141 223.443ZM454.636 221.483L454.629 220.187H454.813L456.987 217.878H458.258L455.779 220.506H455.612L454.636 221.483ZM453.659 223.333V216.06H454.721V223.333H453.659ZM457.104 223.333L455.151 220.741L455.882 219.998L458.407 223.333H457.104ZM463.313 219.21L462.35 219.381C462.31 219.257 462.246 219.14 462.159 219.029C462.074 218.918 461.958 218.827 461.811 218.756C461.664 218.685 461.48 218.649 461.26 218.649C460.96 218.649 460.709 218.717 460.507 218.851C460.306 218.984 460.206 219.156 460.206 219.366C460.206 219.549 460.273 219.695 460.408 219.807C460.543 219.918 460.761 220.009 461.061 220.08L461.928 220.279C462.43 220.395 462.804 220.574 463.05 220.815C463.296 221.057 463.419 221.37 463.419 221.756C463.419 222.083 463.325 222.374 463.135 222.63C462.948 222.883 462.687 223.082 462.35 223.226C462.017 223.371 461.63 223.443 461.189 223.443C460.578 223.443 460.08 223.313 459.694 223.052C459.308 222.79 459.072 222.417 458.984 221.934L460.01 221.778C460.074 222.045 460.206 222.248 460.404 222.385C460.603 222.52 460.863 222.587 461.182 222.587C461.53 222.587 461.808 222.515 462.017 222.371C462.225 222.224 462.329 222.045 462.329 221.834C462.329 221.664 462.265 221.521 462.137 221.405C462.012 221.289 461.819 221.201 461.559 221.142L460.635 220.94C460.126 220.824 459.75 220.639 459.506 220.386C459.265 220.132 459.144 219.811 459.144 219.423C459.144 219.101 459.234 218.82 459.414 218.578C459.594 218.337 459.842 218.148 460.159 218.013C460.477 217.876 460.84 217.807 461.25 217.807C461.839 217.807 462.303 217.935 462.642 218.191C462.98 218.444 463.204 218.784 463.313 219.21ZM466.629 220.315C466.629 221.207 466.512 222.027 466.277 222.775C466.043 223.524 465.701 224.214 465.251 224.846H464.278C464.453 224.611 464.616 224.324 464.768 223.983C464.919 223.642 465.052 223.269 465.166 222.864C465.279 222.457 465.368 222.036 465.432 221.6C465.496 221.164 465.528 220.736 465.528 220.315C465.528 219.753 465.472 219.184 465.361 218.606C465.25 218.029 465.099 217.493 464.91 216.998C464.721 216.503 464.51 216.099 464.278 215.787H465.251C465.701 216.419 466.043 217.109 466.277 217.857C466.512 218.605 466.629 219.424 466.629 220.315Z" fill="#181A1D" fill-opacity="0.6"/>
</svg>
